<svg width="541" height="76" viewBox="0 0 541 76" fill="none" xmlns="http://www.w3.org/2000/svg">
<path fill-rule="evenodd" clip-rule="evenodd" d="M499 75H517.699C522.96 75 527.288 74.1751 530.683 72.5252C534.102 70.8514 536.637 68.5679 538.287 65.6747C539.936 62.7576 540.761 59.4459 540.761 55.7397C540.761 52.0096 540.044 48.8055 538.609 46.1275C537.175 43.4494 535.346 41.3692 533.122 39.8867C530.898 38.3803 528.603 37.5434 526.235 37.3761V36.8022C528.411 36.2044 530.384 35.236 532.153 33.897C533.923 32.558 535.322 30.8005 536.35 28.6246C537.378 26.4487 537.892 23.8305 537.892 20.7699C537.892 17.0876 537.091 13.7998 535.489 10.9066C533.887 8.01337 531.484 5.72987 528.28 4.0561C525.1 2.38233 521.118 1.54544 516.336 1.54544H499V7.57101H516.336C521.358 7.57101 525.136 8.80243 527.67 11.2653C530.205 13.7042 531.472 16.8724 531.472 20.7699C531.472 23.4718 530.862 25.8749 529.643 27.979C528.423 30.0832 526.726 31.7331 524.55 32.9286C522.374 34.1242 519.839 34.7219 516.946 34.7219H499V40.6758H517.986C521.286 40.6758 524.155 41.3453 526.594 42.6843C529.057 44.0233 530.958 45.8405 532.297 48.136C533.66 50.4075 534.341 52.9421 534.341 55.7397C534.341 59.5415 532.978 62.6978 530.253 65.2084C527.551 67.7191 523.366 68.9744 517.699 68.9744H499V75ZM0.755676 39.2102V75H7.46271V45.3025H24.571C25.5375 45.3025 26.4747 45.2703 27.3825 45.2058L43.4726 75H51.2198L34.2686 43.9227C35.4359 43.5412 36.5312 43.0806 37.5547 42.5408C41.0457 40.6997 43.6759 38.1412 45.4453 34.8654C47.2386 31.5896 48.1353 27.8117 48.1353 23.5316C48.1353 19.2515 47.2386 15.4616 45.4453 12.1619C43.6759 8.83829 41.0337 6.24395 37.5188 4.3789C34.0278 2.48993 29.676 1.54544 24.4634 1.54544H0.755676V7.57422H7.46271V7.57101H24.2841C28.1577 7.57101 31.3617 8.22856 33.8963 9.54367C36.4548 10.8588 38.3677 12.7238 39.6349 15.1388C40.9022 17.5299 41.5359 20.3275 41.5359 23.5316C41.5359 26.7357 40.9022 29.5093 39.6349 31.8526C38.3916 34.1959 36.4906 36.0012 33.9322 37.2685C31.3976 38.5357 28.2174 39.1694 24.3917 39.1694H8V39.1751L7.46271 39.1777L4.37819 39.1926L0.755676 39.2102ZM120.604 58.2503C123.329 52.5834 124.692 45.9242 124.692 38.2727C124.692 30.6212 123.329 23.9739 120.604 18.331C117.878 12.6641 114.124 8.28834 109.341 5.20382C104.583 2.0954 99.1075 0.541183 92.9146 0.541183C86.7456 0.541183 81.2699 2.0954 76.4877 5.20382C71.7055 8.28834 67.9515 12.6641 65.2257 18.331C62.5237 23.9739 61.1728 30.6212 61.1728 38.2727C61.1728 45.9242 62.5237 52.5834 65.2257 58.2503C67.9515 63.8933 71.6936 68.2691 76.4519 71.3775C79.652 73.4416 83.1681 74.8151 87 75.4979V69.0096C84.4872 68.4009 82.1428 67.3849 79.9668 65.9616C76.1649 63.451 73.1641 59.8524 70.9643 55.1658C68.7645 50.4793 67.6646 44.8482 67.6646 38.2727C67.6646 31.6733 68.7645 26.0303 70.9643 21.3437C73.188 16.6572 76.2008 13.0705 80.0027 10.5838C83.8045 8.09705 88.1085 6.85368 92.9146 6.85368C97.7446 6.85368 102.061 8.09705 105.862 10.5838C109.664 13.0705 112.665 16.6691 114.865 21.3796C117.065 26.0662 118.165 31.6972 118.165 38.2727C118.188 44.8482 117.101 50.4912 114.901 55.2017C112.701 59.8882 109.688 63.4749 105.862 65.9616C103.449 67.5403 100.828 68.6179 98 69.1944V75.6337C102.149 75.0078 105.93 73.5891 109.341 71.3775C114.124 68.2691 117.878 63.8933 120.604 58.2503ZM165.697 1.54544H140.913V75H167.06C172.32 75 176.648 74.1751 180.043 72.5252C183.462 70.8514 185.997 68.5679 187.647 65.6747C189.297 62.7576 190.122 59.4459 190.122 55.7397C190.122 52.0096 189.404 48.8055 187.97 46.1275C186.535 43.4494 184.706 41.3692 182.482 39.8867C180.258 38.3803 177.963 37.5434 175.596 37.3761V36.8022C177.772 36.2044 179.744 35.236 181.514 33.897C183.283 32.558 184.682 30.8005 185.71 28.6246C186.738 26.4487 187.252 23.8305 187.252 20.7699C187.252 17.0876 186.451 13.7998 184.849 10.9066C183.247 8.01337 180.844 5.72987 177.64 4.0561C174.46 2.38233 170.479 1.54544 165.697 1.54544ZM167.06 68.9744H147.62V40.6758H167.346C170.646 40.6758 173.516 41.3453 175.954 42.6843C178.417 44.0233 180.318 45.8405 181.657 48.136C183.02 50.4075 183.702 52.9421 183.702 55.7397C183.702 59.5415 182.339 62.6978 179.613 65.2084C176.911 67.7191 172.726 68.9744 167.06 68.9744ZM166.306 34.7219H147.62V7.57101H165.697C170.718 7.57101 174.496 8.80243 177.03 11.2653C179.565 13.7042 180.832 16.8724 180.832 20.7699C180.832 23.4718 180.223 25.8749 179.003 27.979C177.784 30.0832 176.086 31.7331 173.91 32.9286C171.734 34.1242 169.2 34.7219 166.306 34.7219ZM206.306 75H213.013V1.54544H206.306V75ZM283.222 75H289.75V1.54544H283.15V63.1282H282.577L239.035 1.54544H232.543V75H239.25V13.489H239.824L283.222 75ZM337.147 1.54544H330.333L350.454 75H357.627L374.664 12.6999H375.13L392.167 75H399.34L419.461 1.54544H412.61L395.968 64.7063H395.395L378.752 1.54544H371.005L354.363 64.7063H353.789L337.147 1.54544ZM474.193 1.54544H431.584V7.5769H438.291V7.57101H474.193V1.54544ZM438.291 35.2148H431.584V41.2555L438.291 41.2523V41.2496H471.934V35.2241H438.291V35.2148ZM431.584 75V69.0019L435.51 69L441.007 68.9974V68.9744H474.91V75H431.584Z" fill="black"/>
</svg>
