<svg width="134" height="19" viewBox="0 0 134 19" fill="none" xmlns="http://www.w3.org/2000/svg">
<g clip-path="url(#clip0_7_169)">
<path fill-rule="evenodd" clip-rule="evenodd" d="M123.597 18.75H128.229C129.532 18.75 130.604 18.5438 131.445 18.1313C132.291 17.7128 132.919 17.142 133.328 16.4187C133.736 15.6894 133.941 14.8615 133.941 13.9349C133.941 13.0024 133.763 12.2014 133.408 11.5319C133.053 10.8623 132.6 10.3423 132.049 9.97167C131.498 9.59507 130.929 9.38585 130.343 9.34402V9.20055C130.882 9.0511 131.371 8.809 131.809 8.47425C132.247 8.1395 132.594 7.70012 132.848 7.15615C133.103 6.61217 133.23 5.95762 133.23 5.19247C133.23 4.2719 133.032 3.44995 132.635 2.72665C132.238 2.00334 131.643 1.43246 130.849 1.01402C130.062 0.595579 129.075 0.386356 127.891 0.386356H123.597V1.89275H127.891C129.135 1.89275 130.071 2.2006 130.698 2.81632C131.326 3.42605 131.64 4.2181 131.64 5.19247C131.64 5.86795 131.489 6.46872 131.187 6.99475C130.885 7.5208 130.465 7.93327 129.926 8.23215C129.387 8.53105 128.759 8.68047 128.042 8.68047H123.597V10.1689H128.3C129.117 10.1689 129.828 10.3363 130.432 10.6711C131.042 11.0058 131.513 11.4601 131.844 12.034C132.182 12.6019 132.351 13.2355 132.351 13.9349C132.351 14.8854 132.013 15.6744 131.338 16.3021C130.669 16.9298 129.632 17.2436 128.229 17.2436H123.597V18.75ZM0.187195 9.80255V18.75H1.84846V11.3256H6.086C6.32539 11.3256 6.55753 11.3176 6.78238 11.3014L10.7677 18.75H12.6866L8.48799 10.9807C8.77712 10.8853 9.04842 10.7701 9.30193 10.6352C10.1666 10.1749 10.8181 9.5353 11.2563 8.71635C11.7005 7.8974 11.9226 6.95292 11.9226 5.8829C11.9226 4.81287 11.7005 3.8654 11.2563 3.04047C10.8181 2.20957 10.1636 1.56098 9.29303 1.09472C8.42835 0.622479 7.35045 0.386356 6.05935 0.386356H0.187195V1.89355H1.84846V1.89275H6.01494C6.97439 1.89275 7.76798 2.05714 8.39578 2.38591C9.02949 2.7147 9.5033 3.18095 9.81717 3.7847C10.1311 4.38247 10.288 5.08187 10.288 5.8829C10.288 6.68392 10.1311 7.37732 9.81717 7.96315C9.50922 8.54897 9.03836 9.0003 8.40467 9.31712C7.77688 9.63392 6.98917 9.79235 6.04159 9.79235H1.98154V9.79377L1.84846 9.79442L1.08445 9.79815L0.187195 9.80255ZM29.8724 14.5626C30.5473 13.1458 30.8849 11.481 30.8849 9.56817C30.8849 7.6553 30.5473 5.99347 29.8724 4.58275C29.1972 3.16602 28.2673 2.07208 27.0826 1.30095C25.9041 0.523846 24.5479 0.135292 23.014 0.135292C21.486 0.135292 20.1297 0.523846 18.9452 1.30095C17.7607 2.07208 16.8309 3.16602 16.1557 4.58275C15.4865 5.99347 15.1519 7.6553 15.1519 9.56817C15.1519 11.481 15.4865 13.1458 16.1557 14.5626C16.8309 15.9733 17.7578 17.0673 18.9364 17.8444C19.729 18.3604 20.5999 18.7038 21.549 18.8745V17.2524C20.9266 17.1002 20.3459 16.8462 19.807 16.4904C18.8653 15.8627 18.122 14.9631 17.5771 13.7914C17.0323 12.6198 16.7598 11.212 16.7598 9.56817C16.7598 7.91832 17.0323 6.50757 17.5771 5.33592C18.1279 4.1643 18.8742 3.26762 19.8158 2.64595C20.7575 2.02426 21.8236 1.71342 23.014 1.71342C24.2103 1.71342 25.2795 2.02426 26.2209 2.64595C27.1626 3.26762 27.906 4.16727 28.4509 5.3449C28.9958 6.51655 29.2682 7.9243 29.2682 9.56817C29.2739 11.212 29.0047 12.6228 28.4598 13.8004C27.9149 14.972 27.1686 15.8687 26.2209 16.4904C25.6232 16.8851 24.9741 17.1545 24.2736 17.2986V18.9084C25.3013 18.7519 26.2378 18.3973 27.0826 17.8444C28.2673 17.0673 29.1972 15.9733 29.8724 14.5626ZM41.0414 0.386356H34.9027V18.75H41.379C42.6819 18.75 43.7539 18.5438 44.5948 18.1313C45.4416 17.7128 46.0695 17.142 46.4782 16.4187C46.8869 15.6894 47.0912 14.8615 47.0912 13.9349C47.0912 13.0024 46.9134 12.2014 46.5582 11.5319C46.2028 10.8623 45.7498 10.3423 45.1989 9.97167C44.648 9.59507 44.0796 9.38585 43.4933 9.34402V9.20055C44.0323 9.0511 44.5207 8.809 44.9591 8.47425C45.3973 8.1395 45.7438 7.70012 45.9984 7.15615C46.2531 6.61217 46.3804 5.95762 46.3804 5.19247C46.3804 4.2719 46.182 3.44995 45.7852 2.72665C45.3884 2.00334 44.7932 1.43246 43.9996 1.01402C43.2119 0.595579 42.2259 0.386356 41.0414 0.386356ZM41.379 17.2436H36.5639V10.1689H41.4499C42.2672 10.1689 42.9781 10.3363 43.582 10.6711C44.192 11.0058 44.6629 11.4601 44.9945 12.034C45.3321 12.6019 45.5011 13.2355 45.5011 13.9349C45.5011 14.8854 45.1635 15.6744 44.4883 16.3021C43.819 16.9298 42.7824 17.2436 41.379 17.2436ZM41.1923 8.68047H36.5639V1.89275H41.0414C42.2851 1.89275 43.2208 2.2006 43.8485 2.81632C44.4764 3.42605 44.7902 4.2181 44.7902 5.19247C44.7902 5.86795 44.6394 6.46872 44.3372 6.99475C44.0352 7.5208 43.6147 7.93327 43.0757 8.23215C42.5367 8.53105 41.9091 8.68047 41.1923 8.68047ZM51.0998 18.75H52.7611V0.386356H51.0998V18.75ZM70.1511 18.75H71.768V0.386356H70.1333V15.782H69.9914L59.2065 0.386356H57.5985V18.75H59.2597V3.37225H59.4019L70.1511 18.75ZM83.5078 0.386356H81.82L86.8038 18.75H88.5805L92.8003 3.17497H92.9158L97.1357 18.75H98.9123L103.896 0.386356H102.199L98.0771 16.1766H97.9352L93.8129 0.386356H91.8941L87.772 16.1766H87.6298L83.5078 0.386356ZM117.453 0.386356H106.899V1.89422H108.56V1.89275H117.453V0.386356ZM108.56 8.8037H106.899V10.3139L108.56 10.3131V10.3124H116.893V8.80602H108.56V8.8037ZM106.899 18.75V17.2505L107.871 17.25L109.233 17.2493V17.2436H117.63V18.75H106.899Z" fill="white"/>
<mask id="mask0_7_169" style="mask-type:luminance" maskUnits="userSpaceOnUse" x="0" y="0" width="134" height="19">
<path fill-rule="evenodd" clip-rule="evenodd" d="M123.597 18.75H128.229C129.532 18.75 130.604 18.5438 131.445 18.1313C132.291 17.7128 132.919 17.142 133.328 16.4187C133.736 15.6894 133.941 14.8615 133.941 13.9349C133.941 13.0024 133.763 12.2014 133.408 11.5319C133.053 10.8623 132.6 10.3423 132.049 9.97167C131.498 9.59507 130.929 9.38585 130.343 9.34402V9.20055C130.882 9.0511 131.371 8.809 131.809 8.47425C132.247 8.1395 132.594 7.70012 132.848 7.15615C133.103 6.61217 133.23 5.95762 133.23 5.19247C133.23 4.2719 133.032 3.44995 132.635 2.72665C132.238 2.00334 131.643 1.43246 130.849 1.01402C130.062 0.595579 129.075 0.386356 127.891 0.386356H123.597V1.89275H127.891C129.135 1.89275 130.071 2.2006 130.698 2.81632C131.326 3.42605 131.64 4.2181 131.64 5.19247C131.64 5.86795 131.489 6.46872 131.187 6.99475C130.885 7.5208 130.465 7.93327 129.926 8.23215C129.387 8.53105 128.759 8.68047 128.042 8.68047H123.597V10.1689H128.3C129.117 10.1689 129.828 10.3363 130.432 10.6711C131.042 11.0058 131.513 11.4601 131.844 12.034C132.182 12.6019 132.351 13.2355 132.351 13.9349C132.351 14.8854 132.013 15.6744 131.338 16.3021C130.669 16.9298 129.632 17.2436 128.229 17.2436H123.597V18.75ZM0.187195 9.80255V18.75H1.84846V11.3256H6.086C6.32539 11.3256 6.55753 11.3176 6.78238 11.3014L10.7677 18.75H12.6866L8.48799 10.9807C8.77712 10.8853 9.04842 10.7701 9.30193 10.6352C10.1666 10.1749 10.8181 9.5353 11.2563 8.71635C11.7005 7.8974 11.9226 6.95292 11.9226 5.8829C11.9226 4.81287 11.7005 3.8654 11.2563 3.04047C10.8181 2.20957 10.1636 1.56098 9.29303 1.09472C8.42835 0.622479 7.35045 0.386356 6.05935 0.386356H0.187195V1.89355H1.84846V1.89275H6.01494C6.97439 1.89275 7.76798 2.05714 8.39578 2.38591C9.02949 2.7147 9.5033 3.18095 9.81717 3.7847C10.1311 4.38247 10.288 5.08187 10.288 5.8829C10.288 6.68392 10.1311 7.37732 9.81717 7.96315C9.50922 8.54897 9.03836 9.0003 8.40467 9.31712C7.77688 9.63392 6.98917 9.79235 6.04159 9.79235H1.98154V9.79377L1.84846 9.79442L1.08445 9.79815L0.187195 9.80255ZM29.8724 14.5626C30.5473 13.1458 30.8849 11.481 30.8849 9.56817C30.8849 7.6553 30.5473 5.99347 29.8724 4.58275C29.1972 3.16602 28.2673 2.07208 27.0826 1.30095C25.9041 0.523846 24.5479 0.135292 23.014 0.135292C21.486 0.135292 20.1297 0.523846 18.9452 1.30095C17.7607 2.07208 16.8309 3.16602 16.1557 4.58275C15.4865 5.99347 15.1519 7.6553 15.1519 9.56817C15.1519 11.481 15.4865 13.1458 16.1557 14.5626C16.8309 15.9733 17.7578 17.0673 18.9364 17.8444C19.729 18.3604 20.5999 18.7038 21.549 18.8745V17.2524C20.9266 17.1002 20.3459 16.8462 19.807 16.4904C18.8653 15.8627 18.122 14.9631 17.5771 13.7914C17.0323 12.6198 16.7598 11.212 16.7598 9.56817C16.7598 7.91832 17.0323 6.50757 17.5771 5.33592C18.1279 4.1643 18.8742 3.26762 19.8158 2.64595C20.7575 2.02426 21.8236 1.71342 23.014 1.71342C24.2103 1.71342 25.2795 2.02426 26.2209 2.64595C27.1626 3.26762 27.906 4.16727 28.4509 5.3449C28.9958 6.51655 29.2682 7.9243 29.2682 9.56817C29.2739 11.212 29.0047 12.6228 28.4598 13.8004C27.9149 14.972 27.1686 15.8687 26.2209 16.4904C25.6232 16.8851 24.9741 17.1545 24.2736 17.2986V18.9084C25.3013 18.7519 26.2378 18.3973 27.0826 17.8444C28.2673 17.0673 29.1972 15.9733 29.8724 14.5626ZM41.0414 0.386356H34.9027V18.75H41.379C42.6819 18.75 43.7539 18.5438 44.5948 18.1313C45.4416 17.7128 46.0695 17.142 46.4782 16.4187C46.8869 15.6894 47.0912 14.8615 47.0912 13.9349C47.0912 13.0024 46.9134 12.2014 46.5582 11.5319C46.2028 10.8623 45.7498 10.3423 45.1989 9.97167C44.648 9.59507 44.0796 9.38585 43.4933 9.34402V9.20055C44.0323 9.0511 44.5207 8.809 44.9591 8.47425C45.3973 8.1395 45.7438 7.70012 45.9984 7.15615C46.2531 6.61217 46.3804 5.95762 46.3804 5.19247C46.3804 4.2719 46.182 3.44995 45.7852 2.72665C45.3884 2.00334 44.7932 1.43246 43.9996 1.01402C43.2119 0.595579 42.2259 0.386356 41.0414 0.386356ZM41.379 17.2436H36.5639V10.1689H41.4499C42.2672 10.1689 42.9781 10.3363 43.582 10.6711C44.192 11.0058 44.6629 11.4601 44.9945 12.034C45.3321 12.6019 45.5011 13.2355 45.5011 13.9349C45.5011 14.8854 45.1635 15.6744 44.4883 16.3021C43.819 16.9298 42.7824 17.2436 41.379 17.2436ZM41.1923 8.68047H36.5639V1.89275H41.0414C42.2851 1.89275 43.2208 2.2006 43.8485 2.81632C44.4764 3.42605 44.7902 4.2181 44.7902 5.19247C44.7902 5.86795 44.6394 6.46872 44.3372 6.99475C44.0352 7.5208 43.6147 7.93327 43.0757 8.23215C42.5367 8.53105 41.9091 8.68047 41.1923 8.68047ZM51.0998 18.75H52.7611V0.386356H51.0998V18.75ZM70.1511 18.75H71.768V0.386356H70.1333V15.782H69.9914L59.2065 0.386356H57.5985V18.75H59.2597V3.37225H59.4019L70.1511 18.75ZM83.5078 0.386356H81.82L86.8038 18.75H88.5805L92.8003 3.17497H92.9158L97.1357 18.75H98.9123L103.896 0.386356H102.199L98.0771 16.1766H97.9352L93.8129 0.386356H91.8941L87.772 16.1766H87.6298L83.5078 0.386356ZM117.453 0.386356H106.899V1.89422H108.56V1.89275H117.453V0.386356ZM108.56 8.8037H106.899V10.3139L108.56 10.3131V10.3124H116.893V8.80602H108.56V8.8037ZM106.899 18.75V17.2505L107.871 17.25L109.233 17.2493V17.2436H117.63V18.75H106.899Z" fill="white"/>
</mask>
<g mask="url(#mask0_7_169)">
<path d="M123.597 18.75H123.349V19H123.597V18.75ZM131.445 18.1313L131.553 18.3561L131.553 18.3558L131.445 18.1313ZM133.328 16.4187L133.543 16.5425L133.544 16.5417L133.328 16.4187ZM132.049 9.97167L131.91 10.1787L131.911 10.1797L132.049 9.97167ZM130.343 9.34402H130.095V9.57695L130.326 9.5934L130.343 9.34402ZM130.343 9.20055L130.278 8.95947L130.095 9.00997V9.20055H130.343ZM130.849 1.01402L130.734 1.23525L130.735 1.23561L130.849 1.01402ZM123.597 0.386356V0.136358H123.349V0.386356H123.597ZM123.597 1.89275H123.349V2.14275H123.597V1.89275ZM130.698 2.81632L130.526 2.9956L130.527 2.99645L130.698 2.81632ZM123.597 8.68047V8.43047H123.349V8.68047H123.597ZM123.597 10.1689H123.349V10.4189H123.597V10.1689ZM130.432 10.6711L130.313 10.8902L130.313 10.8907L130.432 10.6711ZM131.844 12.034L131.63 12.16L131.632 12.1626L131.844 12.034ZM131.338 16.3021L131.17 16.1182L131.169 16.119L131.338 16.3021ZM123.597 17.2436V16.9936H123.349V17.2436H123.597ZM0.187204 18.75H-0.0604858V19H0.187204V18.75ZM0.187204 9.80255L0.186002 9.55255L-0.0604858 9.55377V9.80255H0.187204ZM1.84847 18.75V19H2.09615V18.75H1.84847ZM1.84847 11.3256V11.0756H1.60078V11.3256H1.84847ZM6.78239 11.3014L7.00033 11.1827L6.92434 11.0406L6.76485 11.0521L6.78239 11.3014ZM10.7677 18.75L10.5498 18.8688L10.62 19H10.7677V18.75ZM12.6866 18.75V19H13.1039L12.9041 18.6303L12.6866 18.75ZM8.488 10.9807L8.41105 10.743L8.12791 10.8364L8.27056 11.1004L8.488 10.9807ZM11.2564 8.71635L11.0391 8.5963L11.0384 8.59755L11.2564 8.71635ZM11.2564 3.04047L11.0377 3.15797L11.0387 3.15985L11.2564 3.04047ZM9.29304 1.09472L9.17517 1.3146L9.17695 1.31556L9.29304 1.09472ZM0.187204 0.386356V0.136358H-0.0604858V0.386356H0.187204ZM0.187204 1.89355H-0.0604858V2.14355H0.187204V1.89355ZM1.84847 1.89355V2.14355H2.09615V1.89355H1.84847ZM1.84847 1.89275V1.64275H1.60078V1.89275H1.84847ZM8.39579 2.38591L8.2817 2.60782L8.28254 2.60827L8.39579 2.38591ZM9.81718 3.7847L9.59785 3.90087L9.59834 3.90177L9.81718 3.7847ZM9.81718 7.96315L9.59931 7.84422L9.59839 7.84597L9.81718 7.96315ZM8.40468 9.31712L8.29473 9.0931L8.29391 9.0935L8.40468 9.31712ZM1.98155 9.79235V9.54235H1.73386V9.79235H1.98155ZM1.98155 9.79377L1.98275 10.0438L2.22924 10.0425V9.79377H1.98155ZM29.8724 14.5626L30.0953 14.6713L30.0955 14.6709L29.8724 14.5626ZM29.8724 4.58275L29.649 4.6911L29.6492 4.69147L29.8724 4.58275ZM27.0826 1.30095L26.9474 1.51025L26.9484 1.51104L27.0826 1.30095ZM18.9452 1.30095L19.0795 1.51104L19.0802 1.51056L18.9452 1.30095ZM16.1558 4.58275L15.9325 4.47437L15.9323 4.47477L16.1558 4.58275ZM16.1558 14.5626L15.9322 14.6702L15.9327 14.6713L16.1558 14.5626ZM18.9364 17.8444L18.8009 18.0537L18.8021 18.0544L18.9364 17.8444ZM21.549 18.8745L21.5056 19.1206L21.7967 19.173V18.8745H21.549ZM21.549 17.2524H21.7967V17.0557L21.6073 17.0094L21.549 17.2524ZM19.807 16.4904L19.6705 16.699L19.6714 16.6996L19.807 16.4904ZM17.5771 5.33592L17.3534 5.22877L17.3529 5.2297L17.5771 5.33592ZM28.4509 5.3449L28.2265 5.45067L28.2267 5.45112L28.4509 5.3449ZM29.2683 9.56817H29.0206V9.5691L29.2683 9.56817ZM28.4598 13.8004L28.684 13.9066L28.6842 13.9062L28.4598 13.8004ZM26.2209 16.4904L26.0859 16.2808L26.0854 16.2812L26.2209 16.4904ZM24.2736 17.2986L24.2241 17.0536L24.0259 17.0944V17.2986H24.2736ZM24.2736 18.9084H24.0259V19.199L24.3106 19.1556L24.2736 18.9084ZM27.0826 17.8444L27.2174 18.0541L27.2176 18.054L27.0826 17.8444ZM34.9027 0.386356V0.136358H34.655V0.386356H34.9027ZM34.9027 18.75H34.655V19H34.9027V18.75ZM44.5948 18.1313L44.703 18.3561L44.7038 18.3558L44.5948 18.1313ZM46.4782 16.4187L46.6935 16.5425L46.6937 16.5417L46.4782 16.4187ZM45.1989 9.97167L45.0599 10.1787L45.0614 10.1797L45.1989 9.97167ZM43.4933 9.34402H43.2456V9.57695L43.4757 9.5934L43.4933 9.34402ZM43.4933 9.20055L43.4277 8.95947L43.2456 9.00997V9.20055H43.4933ZM43.9996 1.01402L43.8842 1.23525L43.8849 1.23561L43.9996 1.01402ZM36.5639 17.2436H36.3163V17.4936H36.5639V17.2436ZM36.5639 10.1689V9.91895H36.3163V10.1689H36.5639ZM43.582 10.6711L43.4628 10.8902L43.4638 10.8907L43.582 10.6711ZM44.9946 12.034L44.7806 12.16L44.7823 12.1626L44.9946 12.034ZM44.4883 16.3021L44.3203 16.1182L44.3196 16.119L44.4883 16.3021ZM36.5639 8.68047H36.3163V8.93047H36.5639V8.68047ZM36.5639 1.89275V1.64275H36.3163V1.89275H36.5639ZM43.8485 2.81632L43.6761 2.99562L43.6768 2.99645L43.8485 2.81632ZM52.7611 18.75V19H53.0088V18.75H52.7611ZM51.0999 18.75H50.8522V19H51.0999V18.75ZM52.7611 0.386356H53.0088V0.136358H52.7611V0.386356ZM51.0999 0.386356V0.136358H50.8522V0.386356H51.0999ZM71.7681 18.75V19H72.0157V18.75H71.7681ZM70.1511 18.75L69.9488 18.8941L70.0228 19H70.1511V18.75ZM71.7681 0.386356H72.0157V0.136358H71.7681V0.386356ZM70.1333 0.386356V0.136358H69.8856V0.386356H70.1333ZM70.1333 15.782V16.032H70.381V15.782H70.1333ZM69.9914 15.782L69.789 15.9264L69.8631 16.032H69.9914V15.782ZM59.2065 0.386356L59.4086 0.242028L59.3345 0.136358H59.2065V0.386356ZM57.5985 0.386356V0.136358H57.3508V0.386356H57.5985ZM57.5985 18.75H57.3508V19H57.5985V18.75ZM59.2597 18.75V19H59.5074V18.75H59.2597ZM59.2597 3.37225V3.12225H59.012V3.37225H59.2597ZM59.4019 3.37225L59.6043 3.22812L59.5302 3.12225H59.4019V3.37225ZM81.82 0.386356V0.136358H81.4953L81.581 0.452406L81.82 0.386356ZM83.5078 0.386356L83.7473 0.322659L83.6988 0.136358H83.5078V0.386356ZM86.8038 18.75L86.5648 18.816L86.6148 19H86.8038V18.75ZM88.5805 18.75V19H88.7695L88.8195 18.8159L88.5805 18.75ZM92.8004 3.17497V2.92497H92.6111L92.5613 3.10902L92.8004 3.17497ZM92.9158 3.17497L93.1548 3.10902L93.1048 2.92497H92.9158V3.17497ZM97.1357 18.75L96.8966 18.8159L96.9464 19H97.1357V18.75ZM98.9123 18.75V19H99.1013L99.1511 18.816L98.9123 18.75ZM103.896 0.386356L104.135 0.452406L104.221 0.136358H103.896V0.386356ZM102.199 0.386356V0.136358H102.008L101.96 0.322659L102.199 0.386356ZM98.0771 16.1766V16.4266H98.2681L98.3167 16.2403L98.0771 16.1766ZM97.9352 16.1766L97.6957 16.2403L97.7442 16.4266H97.9352V16.1766ZM93.8129 0.386356L94.0524 0.322659L94.0039 0.136358H93.8129V0.386356ZM91.8941 0.386356V0.136358H91.7033L91.6545 0.322659L91.8941 0.386356ZM87.772 16.1766V16.4266H87.963L88.0115 16.2403L87.772 16.1766ZM87.6298 16.1766L87.3903 16.2403L87.4391 16.4266H87.6298V16.1766ZM106.899 0.386356V0.136358H106.651V0.386356H106.899ZM117.453 0.386356H117.7V0.136358H117.453V0.386356ZM106.899 1.89422H106.651V2.14422H106.899V1.89422ZM108.56 1.89422V2.14422H108.808V1.89422H108.56ZM108.56 1.89275V1.64275H108.312V1.89275H108.56ZM117.453 1.89275V2.14275H117.7V1.89275H117.453ZM106.899 8.8037V8.5537H106.651V8.8037H106.899ZM108.56 8.8037H108.808V8.5537H108.56V8.8037ZM106.899 10.3139H106.651V10.564L106.899 10.5639V10.3139ZM108.56 10.3131V10.5631L108.808 10.5629V10.3131H108.56ZM108.56 10.3124V10.0624H108.312V10.3124H108.56ZM116.893 10.3124V10.5624H117.141V10.3124H116.893ZM116.893 8.80602H117.141V8.55602H116.893V8.80602ZM108.56 8.80602H108.312V9.05602H108.56V8.80602ZM106.899 17.2505L106.899 17.0005L106.651 17.0006V17.2505H106.899ZM106.899 18.75H106.651V19H106.899V18.75ZM109.233 17.2493V17.4993L109.481 17.4992V17.2493H109.233ZM109.233 17.2436V16.9936H108.985V17.2436H109.233ZM117.63 17.2436H117.878V16.9936H117.63V17.2436ZM117.63 18.75V19H117.878V18.75H117.63ZM128.229 18.5H123.597V19H128.229V18.5ZM131.336 17.9064C130.54 18.2972 129.508 18.5 128.229 18.5V19C129.555 19 130.668 18.7903 131.553 18.3561L131.336 17.9064ZM133.113 16.2948C132.732 16.9686 132.145 17.5071 131.336 17.9067L131.553 18.3558C132.438 17.9186 133.106 17.3154 133.543 16.5425L133.113 16.2948ZM133.693 13.9349C133.693 14.823 133.498 15.6077 133.112 16.2956L133.544 16.5417C133.976 15.771 134.189 14.8999 134.189 13.9349H133.693ZM133.19 11.6499C133.522 12.2757 133.693 13.0343 133.693 13.9349H134.189C134.189 12.9705 134.005 12.127 133.626 11.4138L133.19 11.6499ZM131.911 10.1797C132.424 10.5245 132.851 11.0116 133.19 11.6499L133.626 11.4138C133.254 10.7131 132.775 10.16 132.186 9.76367L131.911 10.1797ZM130.326 9.5934C130.863 9.63175 131.39 9.82345 131.91 10.1787L132.188 9.7647C131.606 9.36675 130.996 9.13997 130.36 9.09462L130.326 9.5934ZM130.095 9.20055V9.34402H130.591V9.20055H130.095ZM131.659 8.2749C131.246 8.59017 130.787 8.8183 130.278 8.95947L130.409 9.44162C130.977 9.2839 131.494 9.02785 131.958 8.6736L131.659 8.2749ZM132.624 7.04935C132.385 7.56002 132.063 7.9665 131.659 8.2749L131.958 8.6736C132.431 8.3125 132.802 7.84025 133.072 7.26297L132.624 7.04935ZM132.983 5.19247C132.983 5.9304 132.86 6.54657 132.624 7.04935L133.072 7.26297C133.346 6.6778 133.478 5.98485 133.478 5.19247H132.983ZM132.418 2.84775C132.793 3.52992 132.983 4.30935 132.983 5.19247H133.478C133.478 4.23442 133.271 3.36997 132.852 2.60555L132.418 2.84775ZM130.735 1.23561C131.489 1.63357 132.047 2.17128 132.418 2.84775L132.852 2.60555C132.429 1.8354 131.797 1.23136 130.964 0.792434L130.735 1.23561ZM127.891 0.636356C129.048 0.636356 129.992 0.840909 130.734 1.23525L130.965 0.792791C130.132 0.350246 129.103 0.136358 127.891 0.136358V0.636356ZM123.597 0.636356H127.891V0.136358H123.597V0.636356ZM123.349 0.386356V1.89275H123.845V0.386356H123.349ZM127.891 1.64275H123.597V2.14275H127.891V1.64275ZM130.871 2.63702C130.18 1.95986 129.172 1.64275 127.891 1.64275V2.14275C129.098 2.14275 129.961 2.44135 130.526 2.9956L130.871 2.63702ZM131.888 5.19247C131.888 4.15822 131.552 3.29837 130.87 2.63617L130.527 2.99645C131.1 3.55372 131.392 4.27797 131.392 5.19247H131.888ZM131.401 7.12012C131.727 6.5519 131.888 5.90697 131.888 5.19247H131.392C131.392 5.82892 131.25 6.38555 130.973 6.8694L131.401 7.12012ZM130.045 8.45125C130.622 8.13092 131.076 7.68642 131.401 7.12012L130.973 6.8694C130.694 7.35517 130.306 7.7356 129.806 8.01305L130.045 8.45125ZM128.042 8.93047C128.794 8.93047 129.464 8.77352 130.045 8.45125L129.806 8.01305C129.31 8.28855 128.724 8.43047 128.042 8.43047V8.93047ZM123.597 8.93047H128.042V8.43047H123.597V8.93047ZM123.349 8.68047V10.1689H123.845V8.68047H123.349ZM128.3 9.91895H123.597V10.4189H128.3V9.91895ZM130.551 10.4519C129.904 10.0935 129.151 9.91895 128.3 9.91895V10.4189C129.083 10.4189 129.751 10.5792 130.313 10.8902L130.551 10.4519ZM132.058 11.908C131.702 11.2925 131.198 10.8067 130.55 10.4514L130.313 10.8907C130.886 11.2049 131.323 11.6277 131.63 12.16L132.058 11.908ZM132.598 13.9349C132.598 13.1929 132.419 12.5143 132.057 11.9054L131.632 12.1626C131.945 12.6894 132.103 13.2782 132.103 13.9349H132.598ZM131.506 16.486C132.233 15.8096 132.598 14.9532 132.598 13.9349H132.103C132.103 14.8176 131.793 15.5393 131.17 16.1182L131.506 16.486ZM128.229 17.4936C129.662 17.4936 130.772 17.1739 131.507 16.4852L131.169 16.119C130.565 16.6856 129.602 16.9936 128.229 16.9936V17.4936ZM123.597 17.4936H128.229V16.9936H123.597V17.4936ZM123.349 17.2436V18.75H123.845V17.2436H123.349ZM0.434894 18.75V9.80255H-0.0604858V18.75H0.434894ZM1.84847 18.5H0.187204V19H1.84847V18.5ZM1.60078 11.3256V18.75H2.09615V11.3256H1.60078ZM6.08601 11.0756H1.84847V11.5756H6.08601V11.0756ZM6.76485 11.0521C6.54617 11.0678 6.3199 11.0756 6.08601 11.0756V11.5756C6.3309 11.5756 6.56888 11.5674 6.79995 11.5508L6.76485 11.0521ZM10.9857 18.6312L7.00033 11.1827L6.56445 11.4202L10.5498 18.8688L10.9857 18.6312ZM12.6866 18.5H10.7677V19H12.6866V18.5ZM8.27056 11.1004L12.4692 18.8697L12.9041 18.6303L8.70545 10.861L8.27056 11.1004ZM9.18639 10.4141C8.946 10.542 8.68769 10.6518 8.41105 10.743L8.56496 11.2183C8.86657 11.1188 9.15087 10.9982 9.41748 10.8563L9.18639 10.4141ZM11.0384 8.59755C10.6249 9.37022 10.0104 9.97545 9.18639 10.4141L9.41748 10.8563C10.3228 10.3744 11.0113 9.70037 11.4743 8.83517L11.0384 8.59755ZM11.6749 5.8829C11.6749 6.91715 11.4606 7.81922 11.0391 8.5963L11.4736 8.8364C11.9405 7.97557 12.1703 6.98867 12.1703 5.8829H11.6749ZM11.0387 3.15985C11.4606 3.9433 11.6749 4.8487 11.6749 5.8829H12.1703C12.1703 4.77707 11.9405 3.78752 11.474 2.9211L11.0387 3.15985ZM9.17695 1.31556C10.0065 1.75986 10.624 2.37364 11.0377 3.15797L11.475 2.923C11.0122 2.04553 10.3208 1.36211 9.40913 0.873884L9.17695 1.31556ZM6.05936 0.636356C7.32178 0.636356 8.35626 0.867361 9.17517 1.3146L9.41092 0.874846C8.50046 0.377604 7.37917 0.136358 6.05936 0.136358V0.636356ZM0.187204 0.636356H6.05936V0.136358H0.187204V0.636356ZM0.434894 1.89355V0.386356H-0.0604858V1.89355H0.434894ZM1.84847 1.64355H0.187204V2.14355H1.84847V1.64355ZM1.60078 1.89275V1.89355H2.09615V1.89275H1.60078ZM6.01495 1.64275H1.84847V2.14275H6.01495V1.64275ZM8.50987 2.16401C7.83655 1.81138 7.0006 1.64275 6.01495 1.64275V2.14275C6.94817 2.14275 7.69946 2.30289 8.2817 2.60782L8.50987 2.16401ZM10.0365 3.66855C9.69759 3.01665 9.18545 2.5145 8.50903 2.16357L8.28254 2.60827C8.87356 2.91487 9.30897 3.34527 9.59785 3.90087L10.0365 3.66855ZM10.5357 5.8829C10.5357 5.04855 10.3721 4.30755 10.036 3.66762L9.59834 3.90177C9.8901 4.4574 10.0403 5.1152 10.0403 5.8829H10.5357ZM10.035 8.08207C10.3721 7.45302 10.5357 6.71707 10.5357 5.8829H10.0403C10.0403 6.65077 9.89005 7.30165 9.59931 7.84422L10.035 8.08207ZM8.5146 9.54115C9.19104 9.20295 9.7018 8.71597 10.036 8.08032L9.59839 7.84597C9.31662 8.38197 8.88572 8.79762 8.29473 9.0931L8.5146 9.54115ZM6.0416 10.0423C7.01484 10.0423 7.84339 9.87987 8.51545 9.54072L8.29391 9.0935C7.71038 9.388 6.96355 9.54235 6.0416 9.54235V10.0423ZM1.98155 10.0423H6.0416V9.54235H1.98155V10.0423ZM2.22924 9.79377V9.79235H1.73386V9.79377H2.22924ZM1.84967 10.0444L1.98275 10.0438L1.98035 9.54377L1.84726 9.54442L1.84967 10.0444ZM1.08566 10.0481L1.84967 10.0444L1.84726 9.54442L1.08326 9.54815L1.08566 10.0481ZM0.188406 10.0525L1.08566 10.0481L1.08326 9.54815L0.186002 9.55255L0.188406 10.0525ZM30.6372 9.56817C30.6372 11.4515 30.3051 13.0778 29.649 14.4542L30.0955 14.6709C30.7898 13.2139 31.1326 11.5106 31.1326 9.56817H30.6372ZM29.6492 4.69147C30.3051 6.06165 30.6372 7.6848 30.6372 9.56817H31.1326C31.1326 7.62582 30.7898 5.92532 30.0953 4.474L29.6492 4.69147ZM26.9484 1.51104C28.0907 2.25461 28.9916 3.31142 29.649 4.6911L30.0955 4.47437C29.4028 3.0206 28.4439 1.88955 27.2169 1.09086L26.9484 1.51104ZM23.014 0.385291C24.5043 0.385291 25.8125 0.762084 26.9474 1.51025L27.2181 1.09165C25.9958 0.285611 24.5915 -0.114708 23.014 -0.114708V0.385291ZM19.0802 1.51056C20.2213 0.761974 21.5298 0.385291 23.014 0.385291V-0.114708C21.4422 -0.114708 20.0382 0.285716 18.8103 1.09134L19.0802 1.51056ZM16.3789 4.6911C17.0365 3.31142 17.9373 2.25462 19.0795 1.51104L18.811 1.09086C17.5842 1.88955 16.6253 3.0206 15.9325 4.47437L16.3789 4.6911ZM15.3996 9.56817C15.3996 7.6845 15.7291 6.06107 16.3791 4.6907L15.9323 4.47477C15.244 5.9259 14.9042 7.6261 14.9042 9.56817H15.3996ZM16.3793 14.455C15.729 13.0784 15.3996 11.4518 15.3996 9.56817H14.9042C14.9042 11.5103 15.244 13.2133 15.9322 14.6702L16.3793 14.455ZM19.0718 17.6351C17.9348 16.8853 17.0364 15.828 16.3788 14.4538L15.9327 14.6713C16.6254 16.1187 17.5808 17.2492 18.8009 18.0537L19.0718 17.6351ZM21.5925 18.6283C20.6749 18.4633 19.835 18.1319 19.0706 17.6343L18.8021 18.0544C19.623 18.5888 20.5248 18.9442 21.5056 19.1206L21.5925 18.6283ZM21.3013 17.2524V18.8745H21.7967V17.2524H21.3013ZM19.6714 16.6996C20.2339 17.071 20.8407 17.3364 21.4907 17.4954L21.6073 17.0094C21.0126 16.864 20.458 16.6215 19.9426 16.2812L19.6714 16.6996ZM17.3529 13.8977C17.9144 15.1051 18.6858 16.0427 19.6705 16.699L19.9435 16.2818C19.0448 15.6828 18.3296 14.821 17.8013 13.6852L17.3529 13.8977ZM16.5121 9.56817C16.5121 11.2392 16.789 12.6851 17.3529 13.8977L17.8013 13.6852C17.2755 12.5545 17.0075 11.1849 17.0075 9.56817H16.5121ZM17.3529 5.2297C16.789 6.4424 16.5121 7.89135 16.5121 9.56817H17.0075C17.0075 7.9453 17.2756 6.57275 17.8013 5.44217L17.3529 5.2297ZM19.6803 2.43673C18.6953 3.087 17.9208 4.0216 17.3534 5.22877L17.8009 5.4431C18.335 4.307 19.0531 3.44825 19.9514 2.85517L19.6803 2.43673ZM23.014 1.46342C21.7783 1.46342 20.6646 1.78686 19.6803 2.43673L19.9514 2.85517C20.8504 2.26166 21.8688 1.96342 23.014 1.96342V1.46342ZM26.3567 2.43673C25.3721 1.78672 24.2553 1.46342 23.014 1.46342V1.96342C24.1654 1.96342 25.1866 2.2618 26.0854 2.85517L26.3567 2.43673ZM28.6753 5.23912C28.1138 4.02557 27.3422 3.0874 26.3567 2.43673L26.0854 2.85517C26.9833 3.44787 27.6982 4.309 28.2265 5.45067L28.6753 5.23912ZM29.5159 9.56817C29.5159 7.89717 29.239 6.45127 28.675 5.23867L28.2267 5.45112C28.7526 6.58182 29.0206 7.95142 29.0206 9.56817H29.5159ZM28.6842 13.9062C29.2479 12.6876 29.5219 11.2385 29.5159 9.56727L29.0206 9.5691C29.0263 11.1856 28.7612 12.558 28.2354 13.6946L28.6842 13.9062ZM26.3559 16.7C27.3474 16.0496 28.1222 15.1146 28.684 13.9066L28.2356 13.6942C27.7076 14.8295 26.99 15.6878 26.0859 16.2808L26.3559 16.7ZM24.3231 17.5436C25.0543 17.3931 25.7325 17.1116 26.3567 16.6996L26.0854 16.2812C25.5138 16.6585 24.8938 16.9158 24.2241 17.0536L24.3231 17.5436ZM24.5213 18.9084V17.2986H24.0259V18.9084H24.5213ZM26.9479 17.6346C26.1335 18.1675 25.2307 18.5099 24.2366 18.6612L24.3106 19.1556C25.3721 18.994 26.3418 18.627 27.2174 18.0541L26.9479 17.6346ZM29.6492 14.4538C28.9918 15.8277 28.0907 16.8849 26.9477 17.6347L27.2176 18.054C28.4439 17.2496 29.4025 16.119 30.0953 14.6713L29.6492 14.4538ZM34.9027 0.636356H41.0414V0.136358H34.9027V0.636356ZM35.1504 18.75V0.386356H34.655V18.75H35.1504ZM41.379 18.5H34.9027V19H41.379V18.5ZM44.4865 17.9064C43.69 18.2972 42.6583 18.5 41.379 18.5V19C42.7054 19 43.8178 18.7903 44.703 18.3561L44.4865 17.9064ZM46.263 16.2948C45.8823 16.9686 45.2948 17.5071 44.486 17.9067L44.7038 18.3558C45.5888 17.9186 46.2568 17.3154 46.6935 16.5425L46.263 16.2948ZM46.8436 13.9349C46.8436 14.823 46.6481 15.6077 46.2627 16.2956L46.6937 16.5417C47.1257 15.771 47.3389 14.8999 47.3389 13.9349H46.8436ZM46.3398 11.6499C46.6719 12.2757 46.8436 13.0343 46.8436 13.9349H47.3389C47.3389 12.9705 47.1549 12.127 46.7764 11.4138L46.3398 11.6499ZM45.0614 10.1797C45.5742 10.5245 46.0012 11.0116 46.3398 11.6499L46.7764 11.4138C46.4047 10.7131 45.9254 10.16 45.3364 9.76367L45.0614 10.1797ZM43.4757 9.5934C44.0132 9.63175 44.5405 9.82345 45.0599 10.1787L45.3379 9.7647C44.7558 9.36675 44.146 9.13997 43.5107 9.09462L43.4757 9.5934ZM43.2456 9.20055V9.34402H43.741V9.20055H43.2456ZM44.8095 8.2749C44.3969 8.59017 43.9367 8.8183 43.4277 8.95947L43.5589 9.44162C44.1276 9.2839 44.6448 9.02785 45.1085 8.6736L44.8095 8.2749ZM45.7745 7.04935C45.5355 7.56002 45.2133 7.9665 44.8095 8.2749L45.1085 8.6736C45.5813 8.3125 45.9521 7.84025 46.2224 7.26297L45.7745 7.04935ZM46.1327 5.19247C46.1327 5.9304 46.0098 6.54657 45.7745 7.04935L46.2224 7.26297C46.4963 6.6778 46.6281 5.98485 46.6281 5.19247H46.1327ZM45.5687 2.84775C45.9427 3.52992 46.1327 4.30935 46.1327 5.19247H46.6281C46.6281 4.23442 46.4212 3.36997 46.0019 2.60555L45.5687 2.84775ZM43.8849 1.23561C44.6396 1.63357 45.1974 2.17128 45.5687 2.84775L46.0019 2.60555C45.5793 1.8354 44.9468 1.23136 44.1143 0.792434L43.8849 1.23561ZM41.0414 0.636356C42.1984 0.636356 43.1418 0.840911 43.8842 1.23525L44.115 0.792791C43.282 0.350246 42.2534 0.136358 41.0414 0.136358V0.636356ZM36.5639 17.4936H41.379V16.9936H36.5639V17.4936ZM36.3163 10.1689V17.2436H36.8116V10.1689H36.3163ZM41.4499 9.91895H36.5639V10.4189H41.4499V9.91895ZM43.7014 10.4519C43.0544 10.0935 42.3012 9.91895 41.4499 9.91895V10.4189C42.2333 10.4189 42.9016 10.5792 43.4628 10.8902L43.7014 10.4519ZM45.2086 11.908C44.8529 11.2925 44.3478 10.8067 43.7004 10.4514L43.4638 10.8907C44.0362 11.2049 44.4732 11.6277 44.7806 12.16L45.2086 11.908ZM45.7488 13.9349C45.7488 13.1929 45.5689 12.5143 45.2071 11.9054L44.7823 12.1626C45.0954 12.6894 45.2534 13.2782 45.2534 13.9349H45.7488ZM44.656 16.486C45.3837 15.8096 45.7488 14.9532 45.7488 13.9349H45.2534C45.2534 14.8176 44.9433 15.5393 44.3203 16.1182L44.656 16.486ZM41.379 17.4936C42.8127 17.4936 43.9226 17.1739 44.657 16.4852L44.3196 16.119C43.7155 16.6856 42.7525 16.9936 41.379 16.9936V17.4936ZM36.5639 8.93047H41.1923V8.43047H36.5639V8.93047ZM36.3163 1.89275V8.68047H36.8116V1.89275H36.3163ZM41.0414 1.64275H36.5639V2.14275H41.0414V1.64275ZM44.0211 2.63702C43.3308 1.95986 42.3222 1.64275 41.0414 1.64275V2.14275C42.2479 2.14275 43.1109 2.44138 43.6761 2.99562L44.0211 2.63702ZM45.0379 5.19247C45.0379 4.15822 44.7023 3.29837 44.0204 2.63617L43.6768 2.99645C44.2507 3.55372 44.5425 4.27797 44.5425 5.19247H45.0379ZM44.5514 7.12012C44.8779 6.55187 45.0379 5.90697 45.0379 5.19247H44.5425C44.5425 5.82895 44.4008 6.38555 44.1229 6.8694L44.5514 7.12012ZM43.1951 8.45125C43.7727 8.13092 44.2265 7.68642 44.5514 7.12012L44.1229 6.8694C43.844 7.35517 43.4567 7.7356 42.9566 8.01305L43.1951 8.45125ZM41.1923 8.93047C41.9438 8.93047 42.6138 8.77352 43.1951 8.45125L42.9566 8.01305C42.4597 8.28855 41.8742 8.43047 41.1923 8.43047V8.93047ZM52.7611 18.5H51.0999V19H52.7611V18.5ZM52.5134 0.386356V18.75H53.0088V0.386356H52.5134ZM51.0999 0.636356H52.7611V0.136358H51.0999V0.636356ZM51.3475 18.75V0.386356H50.8522V18.75H51.3475ZM71.7681 18.5H70.1511V19H71.7681V18.5ZM71.5204 0.386356V18.75H72.0157V0.386356H71.5204ZM70.1333 0.636356H71.7681V0.136358H70.1333V0.636356ZM70.381 15.782V0.386356H69.8856V15.782H70.381ZM69.9914 16.032H70.1333V15.532H69.9914V16.032ZM59.0041 0.530686L69.789 15.9264L70.1935 15.6377L59.4086 0.242028L59.0041 0.530686ZM57.5985 0.636356H59.2065V0.136358H57.5985V0.636356ZM57.8462 18.75V0.386356H57.3508V18.75H57.8462ZM59.2597 18.5H57.5985V19H59.2597V18.5ZM59.012 3.37225V18.75H59.5074V3.37225H59.012ZM59.4019 3.12225H59.2597V3.62225H59.4019V3.12225ZM70.3535 18.6059L59.6043 3.22812L59.1996 3.51637L69.9488 18.8941L70.3535 18.6059ZM81.82 0.636356H83.5078V0.136358H81.82V0.636356ZM87.0426 18.6839L82.0588 0.320309L81.581 0.452406L86.5648 18.816L87.0426 18.6839ZM88.5805 18.5H86.8038V19H88.5805V18.5ZM92.5613 3.10902L88.3417 18.684L88.8195 18.8159L93.0391 3.24092L92.5613 3.10902ZM92.9158 2.92497H92.8004V3.42497H92.9158V2.92497ZM97.3744 18.684L93.1548 3.10902L92.6768 3.24092L96.8966 18.8159L97.3744 18.684ZM98.9123 18.5H97.1357V19H98.9123V18.5ZM103.657 0.320309L98.6733 18.6839L99.1511 18.816L104.135 0.452406L103.657 0.320309ZM102.199 0.636356H103.896V0.136358H102.199V0.636356ZM98.3167 16.2403L102.439 0.450056L101.96 0.322659L97.8376 16.1129L98.3167 16.2403ZM97.9352 16.4266H98.0771V15.9266H97.9352V16.4266ZM93.5734 0.450056L97.6957 16.2403L98.1747 16.1129L94.0524 0.322659L93.5734 0.450056ZM91.8941 0.636356H93.8129V0.136358H91.8941V0.636356ZM88.0115 16.2403L92.1336 0.450056L91.6545 0.322659L87.5325 16.1129L88.0115 16.2403ZM87.6298 16.4266H87.772V15.9266H87.6298V16.4266ZM83.2683 0.450056L87.3903 16.2403L87.8694 16.1129L83.7473 0.322659L83.2683 0.450056ZM106.899 0.636356H117.453V0.136358H106.899V0.636356ZM107.147 1.89422V0.386356H106.651V1.89422H107.147ZM108.56 1.64422H106.899V2.14422H108.56V1.64422ZM108.312 1.89275V1.89422H108.808V1.89275H108.312ZM117.453 1.64275H108.56V2.14275H117.453V1.64275ZM117.205 0.386356V1.89275H117.7V0.386356H117.205ZM106.899 9.0537H108.56V8.5537H106.899V9.0537ZM107.147 10.3139V8.8037H106.651V10.3139H107.147ZM108.56 10.0631L106.899 10.0639L106.899 10.5639L108.56 10.5631L108.56 10.0631ZM108.312 10.3124V10.3131H108.808V10.3124H108.312ZM116.893 10.0624H108.56V10.5624H116.893V10.0624ZM116.645 8.80602V10.3124H117.141V8.80602H116.645ZM108.56 9.05602H116.893V8.55602H108.56V9.05602ZM108.312 8.8037V8.80602H108.808V8.8037H108.312ZM106.651 17.2505V18.75H107.147V17.2505H106.651ZM107.871 17L106.899 17.0005L106.899 17.5005L107.871 17.5L107.871 17ZM109.233 16.9993L107.871 17L107.871 17.5L109.233 17.4993L109.233 16.9993ZM108.985 17.2436V17.2493H109.481V17.2436H108.985ZM117.63 16.9936H109.233V17.4936H117.63V16.9936ZM117.878 18.75V17.2436H117.383V18.75H117.878ZM106.899 19H117.63V18.5H106.899V19Z" fill="white"/>
</g>
</g>
<defs>
<clipPath id="clip0_7_169">
<rect width="134" height="19" fill="white"/>
</clipPath>
</defs>
</svg>
