<svg width="321" height="322" viewBox="0 0 321 322" fill="none" xmlns="http://www.w3.org/2000/svg">
<rect x="1" width="320" height="322" fill="#10100E"/>
<rect width="160" height="160" fill="#EFFF11"/>
<rect x="161" y="162" width="160" height="160" fill="#EFFF11"/>
<rect x="191.443" y="132.676" width="1.44298" height="72.6701" transform="rotate(-179.732 191.443 132.676)" fill="#EFFF11"/>
<rect x="21.4429" y="132.676" width="1.44298" height="72.6701" transform="rotate(-179.732 21.4429 132.676)" fill="#10100E"/>
<rect x="22.4429" y="294.676" width="1.44298" height="72.6701" transform="rotate(-179.732 22.4429 294.676)" fill="#EFFF11"/>
<rect x="197.443" y="284.58" width="1.44298" height="73.5739" transform="rotate(-179.732 197.443 284.58)" fill="#10100E"/>
<path d="M11.9553 37.65C11.9553 35.49 12.432 33.81 13.3853 32.61C14.3386 31.4033 15.6586 30.8 17.3453 30.8C19.032 30.8 20.3453 31.4033 21.2853 32.61C22.232 33.81 22.7053 35.49 22.7053 37.65C22.7053 39.6967 22.232 41.2933 21.2853 42.44C20.3453 43.5867 19.032 44.16 17.3453 44.16C15.652 44.16 14.3286 43.5867 13.3753 42.44C12.4286 41.2933 11.9553 39.6967 11.9553 37.65ZM19.7253 37.65C19.7253 34.8433 18.9286 33.44 17.3353 33.44C15.7286 33.44 14.9253 34.8433 14.9253 37.65C14.9253 40.23 15.7286 41.52 17.3353 41.52C18.9286 41.52 19.7253 40.23 19.7253 37.65ZM26.9456 30.99H29.8656V44H26.9456V35.64H23.8356V33.14H25.3656C25.8856 33.14 26.279 33.0467 26.5456 32.86C26.8123 32.6667 26.9456 32.31 26.9456 31.79V30.99Z" fill="#10100E"/>
<path d="M60.9651 115.56V125.44H63.8651C65.3451 125.44 66.4951 125.007 67.3151 124.14C68.1417 123.267 68.5551 122.043 68.5551 120.47C68.5551 118.917 68.1184 117.71 67.2451 116.85C66.3784 115.99 65.1484 115.56 63.5551 115.56H60.9651ZM63.7451 113.99C65.0584 113.99 66.2084 114.26 67.1951 114.8C68.1817 115.34 68.9484 116.097 69.4951 117.07C70.0484 118.037 70.3251 119.17 70.3251 120.47C70.3251 121.777 70.0617 122.92 69.5351 123.9C69.0151 124.88 68.2851 125.643 67.3451 126.19C66.4117 126.73 65.3184 127 64.0651 127H59.2451V113.99H63.7451ZM72.0843 113.74H74.0143V115.67H72.0843V113.74ZM72.1843 117H73.9043V127H72.1843V117ZM80.7438 122.81L79.0838 122.62C78.0572 122.507 77.2805 122.22 76.7538 121.76C76.2272 121.3 75.9638 120.637 75.9638 119.77C75.9638 118.85 76.3138 118.123 77.0138 117.59C77.7205 117.05 78.6772 116.78 79.8838 116.78C81.0838 116.78 82.0505 117.07 82.7838 117.65C83.5172 118.223 83.9372 119.01 84.0438 120.01H82.3538C82.2472 119.383 81.9938 118.92 81.5938 118.62C81.2005 118.32 80.6305 118.17 79.8838 118.17C79.2172 118.17 78.6805 118.31 78.2738 118.59C77.8672 118.863 77.6638 119.227 77.6638 119.68C77.6638 120.12 77.8038 120.447 78.0838 120.66C78.3705 120.867 78.7972 121.007 79.3638 121.08L81.0638 121.27C83.1705 121.517 84.2238 122.533 84.2238 124.32C84.2238 124.9 84.0572 125.407 83.7238 125.84C83.3972 126.267 82.9372 126.6 82.3438 126.84C81.7505 127.073 81.0572 127.19 80.2638 127.19C78.9372 127.19 77.8738 126.897 77.0738 126.31C76.2805 125.717 75.8272 124.933 75.7138 123.96H77.4838C77.6972 125.2 78.6205 125.82 80.2538 125.82C80.9405 125.82 81.4905 125.69 81.9038 125.43C82.3238 125.163 82.5338 124.807 82.5338 124.36C82.5338 123.92 82.3905 123.573 82.1038 123.32C81.8172 123.06 81.3638 122.89 80.7438 122.81ZM85.792 122C85.792 120.933 85.9886 120.007 86.382 119.22C86.7753 118.433 87.332 117.827 88.052 117.4C88.772 116.967 89.6153 116.75 90.582 116.75C91.4953 116.75 92.3053 116.967 93.012 117.4C93.7253 117.833 94.282 118.433 94.682 119.2C95.082 119.96 95.282 120.843 95.282 121.85V122.46H87.372V121.15H93.462C93.382 120.257 93.0753 119.547 92.542 119.02C92.0153 118.487 91.3486 118.22 90.542 118.22C89.5553 118.22 88.802 118.537 88.282 119.17C87.7686 119.803 87.512 120.727 87.512 121.94C87.512 123.18 87.782 124.123 88.322 124.77C88.8686 125.417 89.662 125.74 90.702 125.74C91.4686 125.74 92.082 125.57 92.542 125.23C93.002 124.89 93.292 124.43 93.412 123.85H95.162C94.9486 124.91 94.4686 125.737 93.722 126.33C92.982 126.917 91.9786 127.21 90.712 127.21C89.7053 127.21 88.832 127 88.092 126.58C87.3586 126.153 86.792 125.553 86.392 124.78C85.992 124 85.792 123.073 85.792 122ZM99.7766 113.1C100.163 113.1 100.487 113.177 100.747 113.33C101.007 113.483 101.24 113.657 101.447 113.85C101.66 114.043 101.867 114.217 102.067 114.37C102.273 114.523 102.51 114.6 102.777 114.6C103.057 114.6 103.28 114.473 103.447 114.22C103.62 113.967 103.707 113.627 103.707 113.2H104.907C104.907 114.013 104.723 114.667 104.357 115.16C103.99 115.647 103.503 115.89 102.897 115.89C102.483 115.89 102.14 115.813 101.867 115.66C101.593 115.507 101.353 115.333 101.147 115.14C100.947 114.947 100.753 114.773 100.567 114.62C100.387 114.467 100.18 114.39 99.9466 114.39C99.6733 114.39 99.4566 114.52 99.2966 114.78C99.1433 115.033 99.0666 115.377 99.0666 115.81H97.8166C97.8166 114.963 97.99 114.3 98.3366 113.82C98.69 113.34 99.17 113.1 99.7766 113.1ZM104.017 121.01C104.017 120.083 103.783 119.41 103.317 118.99C102.857 118.563 102.237 118.35 101.457 118.35C100.957 118.35 100.507 118.46 100.107 118.68C99.7133 118.893 99.4 119.19 99.1666 119.57C98.9333 119.943 98.8166 120.377 98.8166 120.87L98.1766 120.75C98.1833 119.917 98.3766 119.203 98.7566 118.61C99.1433 118.01 99.6266 117.55 100.207 117.23C100.793 116.91 101.393 116.75 102.007 116.75C103.087 116.75 103.973 117.083 104.667 117.75C105.36 118.417 105.707 119.38 105.707 120.64V127H104.017V121.01ZM97.0966 117H98.8166V127H97.0966V117ZM107.511 121.96C107.511 120.913 107.711 120 108.111 119.22C108.511 118.433 109.067 117.827 109.781 117.4C110.494 116.967 111.324 116.75 112.271 116.75C113.224 116.75 114.054 116.967 114.761 117.4C115.467 117.827 116.017 118.433 116.411 119.22C116.811 120 117.011 120.913 117.011 121.96C117.011 123.007 116.811 123.927 116.411 124.72C116.017 125.507 115.467 126.12 114.761 126.56C114.054 126.993 113.224 127.21 112.271 127.21C111.324 127.21 110.494 126.993 109.781 126.56C109.067 126.12 108.511 125.507 108.111 124.72C107.711 123.927 107.511 123.007 107.511 121.96ZM115.261 121.96C115.261 120.8 114.997 119.9 114.471 119.26C113.951 118.62 113.217 118.3 112.271 118.3C111.324 118.3 110.584 118.62 110.051 119.26C109.524 119.9 109.261 120.8 109.261 121.96C109.261 123.133 109.524 124.043 110.051 124.69C110.584 125.337 111.324 125.66 112.271 125.66C113.217 125.66 113.951 125.337 114.471 124.69C114.997 124.043 115.261 123.133 115.261 121.96Z" fill="#10100E"/>
<path d="M180.983 40.65C180.983 38.49 181.459 36.81 182.413 35.61C183.366 34.4033 184.686 33.8 186.373 33.8C188.059 33.8 189.373 34.4033 190.313 35.61C191.259 36.81 191.733 38.49 191.733 40.65C191.733 42.6967 191.259 44.2933 190.313 45.44C189.373 46.5867 188.059 47.16 186.373 47.16C184.679 47.16 183.356 46.5867 182.403 45.44C181.456 44.2933 180.983 42.6967 180.983 40.65ZM188.753 40.65C188.753 37.8433 187.956 36.44 186.363 36.44C184.756 36.44 183.953 37.8433 183.953 40.65C183.953 43.23 184.756 44.52 186.363 44.52C187.956 44.52 188.753 43.23 188.753 40.65ZM196.808 44.4H202.938V47H193.248V46.45C193.248 45.4233 193.392 44.56 193.678 43.86C193.965 43.16 194.335 42.5833 194.788 42.13C195.248 41.67 195.742 41.29 196.268 40.99C196.795 40.69 197.302 40.4267 197.788 40.2C198.202 40 198.578 39.8033 198.918 39.61C199.265 39.41 199.542 39.1867 199.748 38.94C199.955 38.6867 200.058 38.3867 200.058 38.04C200.058 37.48 199.888 37.05 199.548 36.75C199.208 36.45 198.745 36.3 198.158 36.3C197.592 36.3 197.132 36.48 196.778 36.84C196.432 37.1933 196.245 37.6733 196.218 38.28H193.248C193.315 37.4067 193.558 36.6367 193.978 35.97C194.398 35.3033 194.955 34.7833 195.648 34.41C196.342 34.03 197.125 33.84 197.998 33.84C199.005 33.84 199.885 34.0133 200.638 34.36C201.392 34.7067 201.975 35.1967 202.388 35.83C202.808 36.4567 203.018 37.1933 203.018 38.04C203.018 38.6533 202.898 39.1867 202.658 39.64C202.418 40.0933 202.102 40.4867 201.708 40.82C201.322 41.1533 200.898 41.4467 200.438 41.7C199.985 41.9467 199.538 42.1767 199.098 42.39C198.692 42.59 198.315 42.79 197.968 42.99C197.622 43.1833 197.342 43.3933 197.128 43.62C196.915 43.8467 196.808 44.1067 196.808 44.4Z" fill="#EFFF11"/>
<path d="M211.401 121.56V131.44H214.301C215.781 131.44 216.931 131.007 217.751 130.14C218.577 129.267 218.991 128.043 218.991 126.47C218.991 124.917 218.554 123.71 217.681 122.85C216.814 121.99 215.584 121.56 213.991 121.56H211.401ZM214.181 119.99C215.494 119.99 216.644 120.26 217.631 120.8C218.617 121.34 219.384 122.097 219.931 123.07C220.484 124.037 220.761 125.17 220.761 126.47C220.761 127.777 220.497 128.92 219.971 129.9C219.451 130.88 218.721 131.643 217.781 132.19C216.847 132.73 215.754 133 214.501 133H209.681V119.99H214.181ZM222.38 128C222.38 126.933 222.577 126.007 222.97 125.22C223.363 124.433 223.92 123.827 224.64 123.4C225.36 122.967 226.203 122.75 227.17 122.75C228.083 122.75 228.893 122.967 229.6 123.4C230.313 123.833 230.87 124.433 231.27 125.2C231.67 125.96 231.87 126.843 231.87 127.85V128.46H223.96V127.15H230.05C229.97 126.257 229.663 125.547 229.13 125.02C228.603 124.487 227.937 124.22 227.13 124.22C226.143 124.22 225.39 124.537 224.87 125.17C224.357 125.803 224.1 126.727 224.1 127.94C224.1 129.18 224.37 130.123 224.91 130.77C225.457 131.417 226.25 131.74 227.29 131.74C228.057 131.74 228.67 131.57 229.13 131.23C229.59 130.89 229.88 130.43 230 129.85H231.75C231.537 130.91 231.057 131.737 230.31 132.33C229.57 132.917 228.567 133.21 227.3 133.21C226.293 133.21 225.42 133 224.68 132.58C223.947 132.153 223.38 131.553 222.98 130.78C222.58 130 222.38 129.073 222.38 128ZM238.465 128.81L236.805 128.62C235.778 128.507 235.001 128.22 234.475 127.76C233.948 127.3 233.685 126.637 233.685 125.77C233.685 124.85 234.035 124.123 234.735 123.59C235.441 123.05 236.398 122.78 237.605 122.78C238.805 122.78 239.771 123.07 240.505 123.65C241.238 124.223 241.658 125.01 241.765 126.01H240.075C239.968 125.383 239.715 124.92 239.315 124.62C238.921 124.32 238.351 124.17 237.605 124.17C236.938 124.17 236.401 124.31 235.995 124.59C235.588 124.863 235.385 125.227 235.385 125.68C235.385 126.12 235.525 126.447 235.805 126.66C236.091 126.867 236.518 127.007 237.085 127.08L238.785 127.27C240.891 127.517 241.945 128.533 241.945 130.32C241.945 130.9 241.778 131.407 241.445 131.84C241.118 132.267 240.658 132.6 240.065 132.84C239.471 133.073 238.778 133.19 237.985 133.19C236.658 133.19 235.595 132.897 234.795 132.31C234.001 131.717 233.548 130.933 233.435 129.96H235.205C235.418 131.2 236.341 131.82 237.975 131.82C238.661 131.82 239.211 131.69 239.625 131.43C240.045 131.163 240.255 130.807 240.255 130.36C240.255 129.92 240.111 129.573 239.825 129.32C239.538 129.06 239.085 128.89 238.465 128.81ZM252.023 126.55V133H250.303V126.4C250.303 125.72 250.083 125.177 249.643 124.77C249.209 124.363 248.616 124.16 247.863 124.16C246.456 124.16 245.676 124.857 245.523 126.25H243.753C243.799 125.557 244.003 124.95 244.363 124.43C244.729 123.903 245.216 123.497 245.823 123.21C246.429 122.917 247.119 122.77 247.893 122.77C248.706 122.77 249.423 122.93 250.043 123.25C250.663 123.57 251.146 124.013 251.493 124.58C251.846 125.147 252.023 125.803 252.023 126.55ZM250.953 128.85C250.953 129.757 250.783 130.537 250.443 131.19C250.103 131.843 249.626 132.347 249.013 132.7C248.406 133.047 247.699 133.22 246.893 133.22C246.233 133.22 245.646 133.093 245.133 132.84C244.626 132.587 244.229 132.237 243.943 131.79C243.656 131.343 243.513 130.833 243.513 130.26C243.513 129.427 243.793 128.763 244.353 128.27C244.913 127.77 245.703 127.483 246.723 127.41L249.793 127.16C249.979 127.147 250.109 127.103 250.183 127.03C250.263 126.95 250.303 126.83 250.303 126.67L250.343 128.45L247.013 128.68C245.833 128.76 245.243 129.247 245.243 130.14C245.243 130.647 245.433 131.047 245.813 131.34C246.193 131.633 246.703 131.78 247.343 131.78C248.229 131.78 248.943 131.507 249.483 130.96C250.029 130.413 250.303 129.69 250.303 128.79L250.953 128.85ZM259.075 124.58H258.595C258.055 124.58 257.575 124.687 257.155 124.9C256.735 125.107 256.405 125.4 256.165 125.78C255.925 126.153 255.805 126.583 255.805 127.07L255.165 126.95C255.165 126.09 255.338 125.35 255.685 124.73C256.031 124.11 256.468 123.633 256.995 123.3C257.528 122.967 258.071 122.8 258.625 122.8H259.075V124.58ZM254.085 123H255.805V133H254.085V123ZM265.579 124.58H265.099C264.559 124.58 264.079 124.687 263.659 124.9C263.239 125.107 262.909 125.4 262.669 125.78C262.429 126.153 262.309 126.583 262.309 127.07L261.669 126.95C261.669 126.09 261.842 125.35 262.189 124.73C262.535 124.11 262.972 123.633 263.499 123.3C264.032 122.967 264.575 122.8 265.129 122.8H265.579V124.58ZM260.589 123H262.309V133H260.589V123ZM266.462 127.96C266.462 126.913 266.662 126 267.062 125.22C267.462 124.433 268.019 123.827 268.732 123.4C269.445 122.967 270.275 122.75 271.222 122.75C272.175 122.75 273.005 122.967 273.712 123.4C274.419 123.827 274.969 124.433 275.362 125.22C275.762 126 275.962 126.913 275.962 127.96C275.962 129.007 275.762 129.927 275.362 130.72C274.969 131.507 274.419 132.12 273.712 132.56C273.005 132.993 272.175 133.21 271.222 133.21C270.275 133.21 269.445 132.993 268.732 132.56C268.019 132.12 267.462 131.507 267.062 130.72C266.662 129.927 266.462 129.007 266.462 127.96ZM274.212 127.96C274.212 126.8 273.949 125.9 273.422 125.26C272.902 124.62 272.169 124.3 271.222 124.3C270.275 124.3 269.535 124.62 269.002 125.26C268.475 125.9 268.212 126.8 268.212 127.96C268.212 129.133 268.475 130.043 269.002 130.69C269.535 131.337 270.275 131.66 271.222 131.66C272.169 131.66 272.902 131.337 273.422 130.69C273.949 130.043 274.212 129.133 274.212 127.96ZM277.776 119H279.496V133H277.776V119ZM281.546 119H283.266V133H281.546V119ZM285.075 127.96C285.075 126.913 285.275 126 285.675 125.22C286.075 124.433 286.632 123.827 287.345 123.4C288.058 122.967 288.888 122.75 289.835 122.75C290.788 122.75 291.618 122.967 292.325 123.4C293.032 123.827 293.582 124.433 293.975 125.22C294.375 126 294.575 126.913 294.575 127.96C294.575 129.007 294.375 129.927 293.975 130.72C293.582 131.507 293.032 132.12 292.325 132.56C291.618 132.993 290.788 133.21 289.835 133.21C288.888 133.21 288.058 132.993 287.345 132.56C286.632 132.12 286.075 131.507 285.675 130.72C285.275 129.927 285.075 129.007 285.075 127.96ZM292.825 127.96C292.825 126.8 292.562 125.9 292.035 125.26C291.515 124.62 290.782 124.3 289.835 124.3C288.888 124.3 288.148 124.62 287.615 125.26C287.088 125.9 286.825 126.8 286.825 127.96C286.825 129.133 287.088 130.043 287.615 130.69C288.148 131.337 288.888 131.66 289.835 131.66C290.782 131.66 291.515 131.337 292.035 130.69C292.562 130.043 292.825 129.133 292.825 127.96Z" fill="#EFFF11"/>
<path d="M184.778 193.65C184.778 191.49 185.254 189.81 186.208 188.61C187.161 187.403 188.481 186.8 190.168 186.8C191.854 186.8 193.168 187.403 194.108 188.61C195.054 189.81 195.528 191.49 195.528 193.65C195.528 195.697 195.054 197.293 194.108 198.44C193.168 199.587 191.854 200.16 190.168 200.16C188.474 200.16 187.151 199.587 186.198 198.44C185.251 197.293 184.778 195.697 184.778 193.65ZM192.548 193.65C192.548 190.843 191.751 189.44 190.158 189.44C188.551 189.44 187.748 190.843 187.748 193.65C187.748 196.23 188.551 197.52 190.158 197.52C191.751 197.52 192.548 196.23 192.548 193.65ZM205.863 197.11V200H203.083V197.11H196.853V194.06L202.213 186.99H205.863V194.66H207.633V197.11H205.863ZM203.083 194.66V190.17L199.803 194.66H203.083Z" fill="#10100E"/>
<path d="M226.519 292H224.919L220.649 281.38V292H218.929V278.99H221.409L225.729 289.6L229.949 278.99H232.509V292H230.809V281.38L226.519 292ZM234.343 287C234.343 285.933 234.539 285.007 234.933 284.22C235.326 283.433 235.883 282.827 236.603 282.4C237.323 281.967 238.166 281.75 239.133 281.75C240.046 281.75 240.856 281.967 241.563 282.4C242.276 282.833 242.833 283.433 243.233 284.2C243.633 284.96 243.833 285.843 243.833 286.85V287.46H235.923V286.15H242.013C241.933 285.257 241.626 284.547 241.093 284.02C240.566 283.487 239.899 283.22 239.093 283.22C238.106 283.22 237.353 283.537 236.833 284.17C236.319 284.803 236.063 285.727 236.063 286.94C236.063 288.18 236.333 289.123 236.873 289.77C237.419 290.417 238.213 290.74 239.253 290.74C240.019 290.74 240.633 290.57 241.093 290.23C241.553 289.89 241.843 289.43 241.963 288.85H243.713C243.499 289.91 243.019 290.737 242.273 291.33C241.533 291.917 240.529 292.21 239.263 292.21C238.256 292.21 237.383 292 236.643 291.58C235.909 291.153 235.343 290.553 234.943 289.78C234.543 289 234.343 288.073 234.343 287ZM243.927 293.76H244.547C244.874 293.76 245.137 293.67 245.337 293.49C245.537 293.31 245.637 292.96 245.637 292.44V282H247.357V292.55C247.357 293.203 247.234 293.733 246.987 294.14C246.747 294.547 246.424 294.843 246.017 295.03C245.617 295.223 245.184 295.32 244.717 295.32H243.927V293.76ZM245.537 278.74H247.467V280.67H245.537V278.74ZM249.167 286.96C249.167 285.913 249.367 285 249.767 284.22C250.167 283.433 250.724 282.827 251.437 282.4C252.15 281.967 252.98 281.75 253.927 281.75C254.88 281.75 255.71 281.967 256.417 282.4C257.124 282.827 257.674 283.433 258.067 284.22C258.467 285 258.667 285.913 258.667 286.96C258.667 288.007 258.467 288.927 258.067 289.72C257.674 290.507 257.124 291.12 256.417 291.56C255.71 291.993 254.88 292.21 253.927 292.21C252.98 292.21 252.15 291.993 251.437 291.56C250.724 291.12 250.167 290.507 249.767 289.72C249.367 288.927 249.167 288.007 249.167 286.96ZM256.917 286.96C256.917 285.8 256.654 284.9 256.127 284.26C255.607 283.62 254.874 283.3 253.927 283.3C252.98 283.3 252.24 283.62 251.707 284.26C251.18 284.9 250.917 285.8 250.917 286.96C250.917 288.133 251.18 289.043 251.707 289.69C252.24 290.337 252.98 290.66 253.927 290.66C254.874 290.66 255.607 290.337 256.127 289.69C256.654 289.043 256.917 288.133 256.917 286.96ZM265.471 283.58H264.991C264.451 283.58 263.971 283.687 263.551 283.9C263.131 284.107 262.801 284.4 262.561 284.78C262.321 285.153 262.201 285.583 262.201 286.07L261.561 285.95C261.561 285.09 261.735 284.35 262.081 283.73C262.428 283.11 262.865 282.633 263.391 282.3C263.925 281.967 264.468 281.8 265.021 281.8H265.471V283.58ZM260.481 282H262.201V292H260.481V282ZM275.001 285.55V292H273.281V285.4C273.281 284.72 273.061 284.177 272.621 283.77C272.188 283.363 271.595 283.16 270.841 283.16C269.435 283.16 268.655 283.857 268.501 285.25H266.731C266.778 284.557 266.981 283.95 267.341 283.43C267.708 282.903 268.195 282.497 268.801 282.21C269.408 281.917 270.098 281.77 270.871 281.77C271.685 281.77 272.401 281.93 273.021 282.25C273.641 282.57 274.125 283.013 274.471 283.58C274.825 284.147 275.001 284.803 275.001 285.55ZM273.931 287.85C273.931 288.757 273.761 289.537 273.421 290.19C273.081 290.843 272.605 291.347 271.991 291.7C271.385 292.047 270.678 292.22 269.871 292.22C269.211 292.22 268.625 292.093 268.111 291.84C267.605 291.587 267.208 291.237 266.921 290.79C266.635 290.343 266.491 289.833 266.491 289.26C266.491 288.427 266.771 287.763 267.331 287.27C267.891 286.77 268.681 286.483 269.701 286.41L272.771 286.16C272.958 286.147 273.088 286.103 273.161 286.03C273.241 285.95 273.281 285.83 273.281 285.67L273.321 287.45L269.991 287.68C268.811 287.76 268.221 288.247 268.221 289.14C268.221 289.647 268.411 290.047 268.791 290.34C269.171 290.633 269.681 290.78 270.321 290.78C271.208 290.78 271.921 290.507 272.461 289.96C273.008 289.413 273.281 288.69 273.281 287.79L273.931 287.85ZM281.853 287.81L280.193 287.62C279.167 287.507 278.39 287.22 277.863 286.76C277.337 286.3 277.073 285.637 277.073 284.77C277.073 283.85 277.423 283.123 278.123 282.59C278.83 282.05 279.787 281.78 280.993 281.78C282.193 281.78 283.16 282.07 283.893 282.65C284.627 283.223 285.047 284.01 285.153 285.01H283.463C283.357 284.383 283.103 283.92 282.703 283.62C282.31 283.32 281.74 283.17 280.993 283.17C280.327 283.17 279.79 283.31 279.383 283.59C278.977 283.863 278.773 284.227 278.773 284.68C278.773 285.12 278.913 285.447 279.193 285.66C279.48 285.867 279.907 286.007 280.473 286.08L282.173 286.27C284.28 286.517 285.333 287.533 285.333 289.32C285.333 289.9 285.167 290.407 284.833 290.84C284.507 291.267 284.047 291.6 283.453 291.84C282.86 292.073 282.167 292.19 281.373 292.19C280.047 292.19 278.983 291.897 278.183 291.31C277.39 290.717 276.937 289.933 276.823 288.96H278.593C278.807 290.2 279.73 290.82 281.363 290.82C282.05 290.82 282.6 290.69 283.013 290.43C283.433 290.163 283.643 289.807 283.643 289.36C283.643 288.92 283.5 288.573 283.213 288.32C282.927 288.06 282.473 287.89 281.853 287.81Z" fill="#10100E"/>
<path d="M65.0283 272.99V274.61H57.4983V278.59H64.4583V280.14H57.4983V284.39H65.0283V286H55.7783V272.99H65.0283ZM73.8116 280.01C73.8116 279.083 73.5782 278.41 73.1116 277.99C72.6516 277.563 72.0316 277.35 71.2516 277.35C70.7516 277.35 70.3016 277.46 69.9016 277.68C69.5082 277.893 69.1949 278.19 68.9616 278.57C68.7282 278.943 68.6116 279.377 68.6116 279.87L67.9716 279.75C67.9782 278.917 68.1716 278.203 68.5516 277.61C68.9382 277.01 69.4216 276.55 70.0016 276.23C70.5882 275.91 71.1882 275.75 71.8016 275.75C72.8816 275.75 73.7682 276.083 74.4616 276.75C75.1549 277.417 75.5016 278.38 75.5016 279.64V286H73.8116V280.01ZM66.8916 276H68.6116V286H66.8916V276ZM76.7117 276H82.0117V277.46H76.7117V276ZM82.0117 284.49V286H80.8917C80.4317 286 80.0084 285.913 79.6217 285.74C79.2351 285.56 78.9217 285.277 78.6817 284.89C78.4484 284.497 78.3317 283.98 78.3317 283.34V273.47H80.0217V283.12C80.0217 283.66 80.1184 284.023 80.3117 284.21C80.5117 284.397 80.7617 284.49 81.0617 284.49H82.0117ZM88.4731 277.58H87.9931C87.4531 277.58 86.9731 277.687 86.5531 277.9C86.1331 278.107 85.8031 278.4 85.5631 278.78C85.3231 279.153 85.2031 279.583 85.2031 280.07L84.5631 279.95C84.5631 279.09 84.7365 278.35 85.0831 277.73C85.4298 277.11 85.8665 276.633 86.3931 276.3C86.9265 275.967 87.4698 275.8 88.0231 275.8H88.4731V277.58ZM83.4831 276H85.2031V286H83.4831V276ZM89.3564 281C89.3564 279.933 89.5531 279.007 89.9464 278.22C90.3397 277.433 90.8964 276.827 91.6164 276.4C92.3364 275.967 93.1797 275.75 94.1464 275.75C95.0597 275.75 95.8697 275.967 96.5764 276.4C97.2897 276.833 97.8464 277.433 98.2464 278.2C98.6464 278.96 98.8464 279.843 98.8464 280.85V281.46H90.9364V280.15H97.0264C96.9464 279.257 96.6397 278.547 96.1064 278.02C95.5797 277.487 94.9131 277.22 94.1064 277.22C93.1197 277.22 92.3664 277.537 91.8464 278.17C91.3331 278.803 91.0764 279.727 91.0764 280.94C91.0764 282.18 91.3464 283.123 91.8864 283.77C92.4331 284.417 93.2264 284.74 94.2664 284.74C95.0331 284.74 95.6464 284.57 96.1064 284.23C96.5664 283.89 96.8564 283.43 96.9764 282.85H98.7264C98.5131 283.91 98.0331 284.737 97.2864 285.33C96.5464 285.917 95.5431 286.21 94.2764 286.21C93.2697 286.21 92.3964 286 91.6564 285.58C90.9231 285.153 90.3564 284.553 89.9564 283.78C89.5564 283 89.3564 282.073 89.3564 281ZM102.211 280.77C102.211 281.877 102.474 282.737 103.001 283.35C103.528 283.963 104.268 284.27 105.221 284.27C106.168 284.27 106.901 283.963 107.421 283.35C107.948 282.737 108.211 281.877 108.211 280.77C108.211 279.67 107.948 278.817 107.421 278.21C106.901 277.603 106.168 277.3 105.221 277.3C104.268 277.3 103.528 277.603 103.001 278.21C102.474 278.817 102.211 279.67 102.211 280.77ZM108.921 280.77C108.921 281.777 108.748 282.66 108.401 283.42C108.054 284.173 107.571 284.76 106.951 285.18C106.331 285.6 105.608 285.81 104.781 285.81C103.914 285.81 103.158 285.6 102.511 285.18C101.864 284.76 101.361 284.173 101.001 283.42C100.641 282.66 100.461 281.777 100.461 280.77C100.461 279.763 100.641 278.887 101.001 278.14C101.361 277.393 101.864 276.81 102.511 276.39C103.158 275.97 103.914 275.76 104.781 275.76C105.608 275.76 106.331 275.97 106.951 276.39C107.571 276.803 108.054 277.387 108.401 278.14C108.748 278.887 108.921 279.763 108.921 280.77ZM109.901 276V286.21C109.901 286.943 109.714 287.59 109.341 288.15C108.968 288.71 108.444 289.143 107.771 289.45C107.104 289.763 106.321 289.92 105.421 289.92C104.088 289.92 102.988 289.617 102.121 289.01C101.261 288.41 100.754 287.613 100.601 286.62H102.381C102.454 287.193 102.751 287.64 103.271 287.96C103.798 288.287 104.498 288.45 105.371 288.45C106.264 288.45 106.961 288.247 107.461 287.84C107.961 287.433 108.211 286.86 108.211 286.12V276H109.901ZM120.23 279.55V286H118.51V279.4C118.51 278.72 118.29 278.177 117.85 277.77C117.416 277.363 116.823 277.16 116.07 277.16C114.663 277.16 113.883 277.857 113.73 279.25H111.96C112.006 278.557 112.21 277.95 112.57 277.43C112.936 276.903 113.423 276.497 114.03 276.21C114.636 275.917 115.326 275.77 116.1 275.77C116.913 275.77 117.63 275.93 118.25 276.25C118.87 276.57 119.353 277.013 119.7 277.58C120.053 278.147 120.23 278.803 120.23 279.55ZM119.16 281.85C119.16 282.757 118.99 283.537 118.65 284.19C118.31 284.843 117.833 285.347 117.22 285.7C116.613 286.047 115.906 286.22 115.1 286.22C114.44 286.22 113.853 286.093 113.34 285.84C112.833 285.587 112.436 285.237 112.15 284.79C111.863 284.343 111.72 283.833 111.72 283.26C111.72 282.427 112 281.763 112.56 281.27C113.12 280.77 113.91 280.483 114.93 280.41L118 280.16C118.186 280.147 118.316 280.103 118.39 280.03C118.47 279.95 118.51 279.83 118.51 279.67L118.55 281.45L115.22 281.68C114.04 281.76 113.45 282.247 113.45 283.14C113.45 283.647 113.64 284.047 114.02 284.34C114.4 284.633 114.91 284.78 115.55 284.78C116.436 284.78 117.15 284.507 117.69 283.96C118.236 283.413 118.51 282.69 118.51 281.79L119.16 281.85Z" fill="#EFFF11"/>
<path d="M10.0413 202.65C10.0413 200.49 10.5179 198.81 11.4713 197.61C12.4246 196.403 13.7446 195.8 15.4313 195.8C17.1179 195.8 18.4313 196.403 19.3713 197.61C20.3179 198.81 20.7913 200.49 20.7913 202.65C20.7913 204.697 20.3179 206.293 19.3713 207.44C18.4313 208.587 17.1179 209.16 15.4313 209.16C13.7379 209.16 12.4146 208.587 11.4613 207.44C10.5146 206.293 10.0413 204.697 10.0413 202.65ZM17.8113 202.65C17.8113 199.843 17.0146 198.44 15.4213 198.44C13.8146 198.44 13.0113 199.843 13.0113 202.65C13.0113 205.23 13.8146 206.52 15.4213 206.52C17.0146 206.52 17.8113 205.23 17.8113 202.65ZM28.543 201.35V203.53H26.023V201.35H28.543ZM27.413 203.06V201.35C27.8596 201.35 28.1996 201.223 28.433 200.97C28.673 200.717 28.793 200.36 28.793 199.9C28.793 199.36 28.633 198.94 28.313 198.64C27.9996 198.34 27.5596 198.19 26.993 198.19C26.4663 198.19 26.0463 198.343 25.733 198.65C25.4263 198.95 25.263 199.367 25.243 199.9H22.253C22.313 199.087 22.553 198.377 22.973 197.77C23.3996 197.163 23.963 196.69 24.663 196.35C25.3696 196.01 26.173 195.84 27.073 195.84C27.9863 195.84 28.7963 196.003 29.503 196.33C30.2096 196.65 30.763 197.1 31.163 197.68C31.563 198.253 31.763 198.917 31.763 199.67C31.763 200.71 31.373 201.537 30.593 202.15C29.813 202.757 28.753 203.06 27.413 203.06ZM27.413 201.83C28.333 201.83 29.133 201.98 29.813 202.28C30.493 202.58 31.0196 203 31.393 203.54C31.7663 204.073 31.953 204.7 31.953 205.42C31.953 206.167 31.7563 206.82 31.363 207.38C30.9696 207.94 30.4196 208.377 29.713 208.69C29.0063 209.003 28.1796 209.16 27.233 209.16C26.273 209.16 25.413 208.987 24.653 208.64C23.8996 208.293 23.293 207.81 22.833 207.19C22.3796 206.563 22.1196 205.84 22.053 205.02H25.023C25.0696 205.567 25.273 206 25.633 206.32C25.9996 206.633 26.473 206.79 27.053 206.79C27.6663 206.79 28.143 206.64 28.483 206.34C28.823 206.04 28.993 205.62 28.993 205.08C28.993 204.58 28.853 204.197 28.573 203.93C28.2996 203.663 27.913 203.53 27.413 203.53V201.83Z" fill="#EFFF11"/>
<path d="M96.7668 28.0025L94.0425 28.2255L93.9233 28.2408L93.8473 28.256L94.2224 30.3847L94.2503 30.7522L94.2858 30.7471V30.7522L94.3111 30.7471L96.9037 30.5342L99.1135 30.5596L99.1388 28.0253L96.8833 28L96.7668 28.0025ZM101.521 30.7649L102.079 30.8206L102.104 30.8257L104.582 31.3072L104.598 31.3097L106.245 31.7862L106.944 29.3508L105.186 28.8439L105.077 28.8186L102.466 28.3142L102.355 28.299L101.774 28.2408L101.521 30.7649ZM91.1915 28.7223L91.0774 28.7476L88.4012 29.48L88.2872 29.5129L86.2927 30.2605L87.1823 32.6377L89.1438 31.9027L91.6882 31.2058L91.7895 31.1906L91.3511 28.6969L91.1915 28.7223ZM108.526 32.5971L109.334 32.9088L111.585 34.0112L112.842 34.774L114.154 32.6073L112.847 31.814L112.748 31.7608L110.386 30.6027L110.287 30.5571L109.435 30.2301L108.526 32.5971ZM83.1883 31.6899L83.0895 31.7456L80.7985 33.1217L80.7047 33.1851L79.3869 34.1481L80.8821 36.1907L82.1695 35.2505L82.1949 35.2353L84.3566 33.9428L84.9851 33.6387L83.8827 31.3579L83.1883 31.6899ZM114.851 36.1299L115.789 36.8141L115.817 36.8395L117.692 38.4918L117.717 38.5121L118.48 39.3205L120.318 37.5719L119.471 36.6849L119.393 36.6088L117.401 34.8653L117.317 34.7943L116.346 34.0847L114.851 36.1299ZM76.4827 36.5607L76.3965 36.6393L74.5769 38.545L74.5059 38.6312L73.695 39.6398L75.6743 41.2237L76.4522 40.2531L78.2009 38.4234L79.0068 37.7188L77.3392 35.8131L76.4827 36.5607ZM120.084 41.135L120.997 42.2754L121.004 42.2881L122.444 44.4751L122.791 45.129L125.029 43.9379L124.656 43.2384L124.598 43.1396L123.113 40.8791L123.044 40.7878L122.064 39.5562L120.084 41.135ZM71.3331 42.9597L71.2798 43.056L70.0127 45.3723L69.962 45.4711L69.5667 46.386L71.8881 47.3997L72.2682 46.5304L73.4872 44.3028L73.5024 44.2724L74.2398 43.1751L72.1313 41.7686L71.3331 42.9597ZM123.886 47.2831L124.717 49.2522L125.518 51.7915L125.523 51.827H125.528L125.533 51.8473L125.746 51.7763L128.001 51.2872L127.976 51.1934L127.951 51.0794L127.114 48.4311L127.071 48.3221L126.222 46.3023L123.886 47.2831ZM68.0233 50.5244L67.9929 50.6334L67.3746 53.236L67.3543 53.3501L67.2656 53.9634L69.7745 54.3207L69.8505 53.7809L70.4435 51.2872L70.9859 49.6476L68.5859 48.8417L68.0233 50.5244ZM126.162 54.2802L126.068 54.2903V54.3004H126.063L126.078 54.3562L126.39 56.9056L126.466 59.118L129 59.0395L128.924 56.7815L128.914 56.6674L128.584 53.9811L128.561 53.8671L128.536 53.7657L126.162 54.2802ZM66.8145 58.8747V58.9888L66.9286 61.7714L69.4577 61.6675L69.3563 58.9558L69.4628 56.7206L66.9336 56.5889L66.8145 58.8747ZM126.326 62.0628V62.078L125.964 64.5185L125.538 66.3052L128.004 66.8931L128.44 65.0634L128.46 64.9544L128.845 62.334L128.855 62.225L128.891 61.6802L126.357 61.5382L126.326 62.0628ZM124.583 69.3792L123.569 71.7031L122.849 73.0311L125.079 74.2374L125.83 72.8537L125.88 72.7523L126.924 70.3372L126.962 70.2358L127.236 69.4223L124.829 68.6215L124.583 69.3792ZM120.969 76.0265L119.375 78.0159L118.564 78.8674L120.389 80.6186L121.25 79.7189L121.326 79.6328L122.989 77.5598L123.055 77.466L123.696 76.4954L121.582 75.0939L120.969 76.0265ZM115.708 81.5208L115.682 81.536L113.533 83.0895L112.956 83.4316L114.243 85.6111L114.877 85.2411L114.97 85.1777L117.193 83.5811L117.282 83.5051L118.485 82.4559L116.82 80.5451L115.708 81.5208Z" fill="#10100E"/>
<path d="M61.2722 64.8986C61.1054 64.898 60.94 64.9303 60.7857 64.9936C60.6314 65.057 60.4911 65.1502 60.3729 65.268C60.2547 65.3857 60.1609 65.5256 60.0969 65.6797C60.0329 65.8338 60 65.9989 60 66.1658V93.9133C59.9998 94.1398 60.0604 94.3623 60.1754 94.5575C60.2904 94.7528 60.4556 94.9136 60.6539 95.0233L85.7632 108.901C85.9509 109.005 86.1619 109.059 86.3765 109.059C86.591 109.059 86.802 109.005 86.9898 108.901L112.094 95.0233C112.292 94.9136 112.458 94.7528 112.573 94.5575C112.688 94.3623 112.748 94.1398 112.748 93.9133V66.1658C112.748 65.9452 112.691 65.7284 112.581 65.5368C112.472 65.3453 112.315 65.1855 112.125 65.0734C111.935 64.9613 111.719 64.9007 111.499 64.8976C111.278 64.8945 111.06 64.949 110.867 65.0558L86.3765 78.5937L61.8804 65.0558C61.6941 64.9532 61.4849 64.8991 61.2722 64.8986ZM62.5342 68.3148L85.7632 81.1482C85.9509 81.2521 86.1619 81.3065 86.3765 81.3065C86.591 81.3065 86.802 81.2521 86.9898 81.1482L110.214 68.3148V93.1657L86.3765 106.339L62.5342 93.1631V68.3148Z" fill="#10100E"/>
<path fill-rule="evenodd" clip-rule="evenodd" d="M86.3814 51.0234C86.165 51.023 85.9521 51.078 85.763 51.1831L60.6537 65.0556C60.4557 65.1652 60.2906 65.3258 60.1756 65.5208C60.0606 65.7157 60 65.938 60 66.1643C60 66.3907 60.0606 66.6129 60.1756 66.8079C60.2906 67.0028 60.4557 67.1635 60.6537 67.273L85.763 81.1481C85.9507 81.2519 86.1618 81.3064 86.3763 81.3064C86.5909 81.3064 86.8019 81.2519 86.9896 81.1481L112.094 67.273C112.292 67.1635 112.457 67.0028 112.572 66.8079C112.687 66.6129 112.748 66.3907 112.748 66.1643C112.748 65.938 112.687 65.7157 112.572 65.5208C112.457 65.3258 112.292 65.1652 112.094 65.0556L86.9896 51.1831C86.8035 51.0796 86.5943 51.0247 86.3814 51.0234ZM86.3763 53.7351L108.863 66.1656L86.3763 78.5935L63.8849 66.1656L86.3763 53.7376V53.7351Z" fill="#10100E"/>
<path fill-rule="evenodd" clip-rule="evenodd" d="M86.3562 78.7531C86.1898 78.7557 86.0256 78.7911 85.8728 78.8573C85.7201 78.9234 85.5819 79.019 85.4662 79.1385C85.3504 79.2581 85.2593 79.3993 85.1981 79.554C85.1368 79.7088 85.1067 79.8741 85.1094 80.0405V107.791C85.1094 108.127 85.2429 108.449 85.4805 108.687C85.7182 108.924 86.0404 109.058 86.3765 109.058C86.7126 109.058 87.0349 108.924 87.2725 108.687C87.5102 108.449 87.6436 108.127 87.6436 107.791V80.0405C87.6464 79.8707 87.6149 79.702 87.5512 79.5446C87.4875 79.3872 87.3928 79.2442 87.2727 79.1241C87.1526 79.004 87.0096 78.9092 86.8521 78.8455C86.6947 78.7818 86.5261 78.7504 86.3562 78.7531Z" fill="#10100E"/>
<path d="M230.749 95.5648H224.937C224.468 95.5648 224.017 95.3783 223.685 95.0462C223.353 94.7141 223.167 94.2637 223.167 93.794V68.8748C223.167 68.4052 223.353 67.9548 223.685 67.6227C224.017 67.2906 224.468 67.104 224.937 67.104H230.749C232.965 67.1059 235.089 67.9867 236.655 69.5531C238.221 71.1196 239.102 73.2435 239.104 75.4588V87.2065C239.102 89.4221 238.222 91.5464 236.655 93.1134C235.089 94.6804 232.965 95.562 230.749 95.5648ZM226.708 92.0232H230.749C233.406 92.0232 235.562 89.8628 235.562 87.21V75.4623C235.562 74.1861 235.054 72.9624 234.152 72.06C233.249 71.1575 232.026 70.6502 230.749 70.6492H226.708V92.0232ZM256.812 95.4373H244.417C243.947 95.4373 243.497 95.2508 243.164 94.9187C242.832 94.5866 242.646 94.1362 242.646 93.6665V68.8748C242.646 68.4052 242.832 67.9548 243.164 67.6227C243.497 67.2906 243.947 67.104 244.417 67.104H256.812C257.282 67.104 257.733 67.2906 258.065 67.6227C258.397 67.9548 258.583 68.4052 258.583 68.8748C258.583 69.3445 258.397 69.7949 258.065 70.127C257.733 70.4591 257.282 70.6457 256.812 70.6457H246.187V91.8957H256.812C257.282 91.8957 257.733 92.0822 258.065 92.4143C258.397 92.7464 258.583 93.1969 258.583 93.6665C258.583 94.1362 258.397 94.5866 258.065 94.9187C257.733 95.2508 257.282 95.4373 256.812 95.4373Z" fill="#EFFF11"/>
<path d="M253.271 83.0415H244.417C243.947 83.0415 243.497 82.8549 243.165 82.5228C242.832 82.1907 242.646 81.7403 242.646 81.2706C242.646 80.801 242.832 80.3506 243.165 80.0185C243.497 79.6864 243.947 79.4998 244.417 79.4998H253.271C253.74 79.4998 254.191 79.6864 254.523 80.0185C254.855 80.3506 255.042 80.801 255.042 81.2706C255.042 81.7403 254.855 82.1907 254.523 82.5228C254.191 82.8549 253.74 83.0415 253.271 83.0415ZM270.979 95.5648C270.594 95.5649 270.219 95.4395 269.912 95.2075C269.605 94.9755 269.381 94.6496 269.276 94.2792L262.192 69.36C262.064 68.9082 262.12 68.4238 262.348 68.0133C262.577 67.6028 262.959 67.3 263.411 67.1713C263.862 67.0426 264.347 67.0987 264.757 67.3271C265.168 67.5556 265.471 67.9378 265.599 68.3896L270.979 87.3163L276.359 68.3896C276.488 67.9378 276.791 67.5556 277.201 67.3271C277.611 67.0987 278.096 67.0426 278.548 67.1713C279 67.3 279.382 67.6028 279.61 68.0133C279.839 68.4238 279.895 68.9082 279.766 69.36L272.683 94.2792C272.577 94.6496 272.354 94.9755 272.046 95.2075C271.739 95.4395 271.364 95.5649 270.979 95.5648Z" fill="#EFFF11"/>
<path d="M288.688 104.292H214.313C211.384 104.292 209 101.908 209 98.9793V60.021C209 57.092 211.384 54.7085 214.313 54.7085H288.688C291.616 54.7085 294 57.092 294 60.021V98.9793C294 101.908 291.616 104.292 288.688 104.292ZM214.313 58.2502C213.843 58.2502 213.392 58.4367 213.06 58.7688C212.728 59.1009 212.542 59.5513 212.542 60.021V98.9793C212.542 99.449 212.728 99.8994 213.06 100.231C213.392 100.564 213.843 100.75 214.313 100.75H288.688C289.157 100.75 289.608 100.564 289.94 100.231C290.272 99.8994 290.458 99.449 290.458 98.9793V60.021C290.458 59.5513 290.272 59.1009 289.94 58.7688C289.608 58.4367 289.157 58.2502 288.688 58.2502H214.313Z" fill="#EFFF11"/>
<path d="M70.0987 243.931C74.4173 243.931 77.9181 247.126 77.9181 251.067C77.9181 255.008 74.4173 258.203 70.0987 258.203C65.7802 258.203 62.2794 255.008 62.2794 251.067C62.2849 247.128 65.7824 243.936 70.0982 243.931H70.0987ZM70.0987 255.242C72.6253 255.242 74.6735 253.373 74.6735 251.067C74.6735 248.761 72.6253 246.892 70.0987 246.892C67.5722 246.892 65.5239 248.761 65.5239 251.067C65.5277 253.371 67.5736 255.238 70.0983 255.242H70.0987ZM107.281 243.931C111.6 243.931 115.1 247.126 115.1 251.067C115.1 255.008 111.6 258.203 107.281 258.203C102.963 258.203 99.4618 255.008 99.4618 251.067C99.4673 247.128 102.965 243.936 107.281 243.931H107.281ZM107.281 255.242C109.808 255.242 111.856 253.373 111.856 251.067C111.856 248.761 109.808 246.892 107.281 246.892C104.755 246.892 102.706 248.761 102.706 251.067C102.71 253.371 104.756 255.238 107.281 255.242H107.281ZM124.38 252.547H113.478V249.586H121.135V238.137L115.334 235.176L108.741 223.146V212.961H56.2446V249.586H63.9017V252.547H53V210H111.986V222.436L117.787 233.026L124.38 236.402L124.38 252.547ZM101.084 252.547H76.2958V249.586H101.084V252.547ZM116.561 235.582H96.3471V221.31H110.363V224.271H99.5917V232.621H116.561L116.561 235.582Z" fill="#EFFF11"/>
<path d="M214.588 266.035L212 263.447L241.261 234.182L255.245 248.166L288.874 214.538L291.462 217.126L255.245 253.343L241.261 239.358L214.588 266.035ZM292 233.292H288.339V217.661H272.707V214H292L292 233.292Z" fill="#10100E"/>
</svg>
